<?xml version="1.0" encoding="utf-8"?>
<!-- Generator: Adobe Illustrator 16.0.3, SVG Export Plug-In . SVG Version: 6.00 Build 0)  -->
<!DOCTYPE svg PUBLIC "-//W3C//DTD SVG 1.1//EN" "http://www.w3.org/Graphics/SVG/1.1/DTD/svg11.dtd">
<svg version="1.1" id="Capa_1" xmlns="http://www.w3.org/2000/svg" xmlns:xlink="http://www.w3.org/1999/xlink" x="0px" y="0px"
	 width="16px" height="16px" viewBox="0 0 16 16" enable-background="new 0 0 16 16" xml:space="preserve">
<g>
	<g transform="translate(0.000000,512.000000) scale(0.100000,-0.100000)">
		<g>
			<path fill="#E52620" d="M45.449,5100.751c-11.348-0.181-12.061-0.308-17.08-2.93c-2.163-1.118-3.208-1.929-5.518-4.282
				c-2.441-2.441-3.037-3.281-4.214-5.713c-2.646-5.464-2.446-1.094-2.529-48.687c-0.063-36.963-0.034-42.471,0.391-44.482
				c1.929-9.873,9.609-17.188,19.805-18.975c1.304-0.234,14.697-0.293,44.185-0.234l42.324,0.088l2.07,0.654
				c3.027,0.996,6.65,2.93,8.789,4.736c3.564,2.959,6.65,7.891,7.891,12.539c0.498,1.846,0.547,4.707,0.547,44.917v42.949
				l-0.996,2.808c-1.055,3.135-1.953,4.814-3.799,7.29c-3.672,4.941-9.639,8.418-15.908,9.194
				C119.404,5100.869,58.75,5100.996,45.449,5100.751z M66.533,5084.956c0-9.585-0.063-11.011-0.444-11.011
				c-0.396,0-0.449,1.426-0.449,11.011c0,9.58,0.054,11.001,0.449,11.001C66.47,5095.957,66.533,5094.536,66.533,5084.956z
				 M97.051,5085.102c-0.059-5.786-0.215-9.038-0.371-9.038c-0.186,0-0.332,3.252-0.4,9.038c-0.068,7.959,0,9.048,0.4,9.048
				C97.051,5094.15,97.129,5093.061,97.051,5085.102z M46.777,5085.073c0-6.333-0.054-7.354-0.439-7.354
				c-0.391,0-0.439,1.021-0.537,7.08c-0.029,3.896,0,7.266,0.098,7.485c0.078,0.234,0.322,0.356,0.527,0.264
				C46.694,5092.465,46.777,5090.712,46.777,5085.073z M64.302,5085.073c0-6.484-0.024-7.051-0.503-7.148
				c-0.503-0.083-0.532,0.4-0.532,6.973c0,3.857,0.083,7.139,0.205,7.266C64.185,5092.851,64.302,5091.757,64.302,5085.073z
				 M68.613,5085.102c0-6.235-0.063-7.236-0.454-7.236c-0.381,0-0.444,1.001-0.444,7.236c0,6.245,0.063,7.241,0.444,7.241
				C68.55,5092.343,68.613,5091.347,68.613,5085.102z M79.541,5085.102c-0.068-4.097-0.215-6.655-0.391-6.719
				c-0.181-0.029-0.327,2.383-0.386,6.665c-0.063,5.84,0,6.685,0.386,6.685C79.541,5091.733,79.6,5090.888,79.541,5085.102z
				 M94.98,5085.048c-0.078-4.678-0.137-5.522-0.547-5.522c-0.371,0-0.439,0.845-0.527,5.522c-0.059,5.361-0.059,5.479,0.527,5.479
				C95.039,5090.527,95.039,5090.41,94.98,5085.048z M99.346,5089.868c0.088-0.386,0.117-2.803,0.088-5.371
				c-0.088-4.15-0.156-4.668-0.586-4.761c-0.508-0.088-0.547,0.303-0.547,5.161c0,2.861,0.098,5.332,0.205,5.425
				C98.867,5090.712,99.199,5090.527,99.346,5089.868z M121.104,5084.98c0.059-4.971,0.039-5.332-0.439-5.244
				c-0.479,0.093-0.547,0.576-0.625,4.761c-0.088,4.941,0.029,6.157,0.625,5.938C120.928,5090.351,121.055,5088.847,121.104,5084.98
				z M44.556,5084.926c0-3.921-0.059-4.639-0.449-4.639c-0.381,0-0.444,0.718-0.444,4.609c0,2.554,0.093,4.727,0.181,4.819
				C44.404,5090.258,44.556,5089.174,44.556,5084.926z M49.009,5085.102c0-3.823-0.063-4.512-0.444-4.512s-0.444,0.688-0.444,4.512
				c0,3.828,0.063,4.521,0.444,4.521S49.009,5088.93,49.009,5085.102z M35.884,5084.98c0.063-3.55,0.029-3.823-0.444-3.73
				c-0.479,0.083-0.532,0.513-0.625,3.247c-0.088,3.467,0.059,4.648,0.625,4.434C35.674,5088.872,35.82,5087.661,35.884,5084.98z
				 M62.075,5084.956c0-3.413-0.059-4.077-0.449-4.077c-0.381,0-0.439,0.664-0.439,4.077c0,3.408,0.059,4.067,0.439,4.067
				C62.017,5089.023,62.075,5088.364,62.075,5084.956z M70.928,5085.048c-0.093-3.315-0.176-4.014-0.532-4.014
				c-0.361,0-0.454,0.698-0.537,4.014c-0.068,3.823-0.068,3.975,0.537,3.975C70.977,5089.023,70.977,5088.872,70.928,5085.048z
				 M77.456,5085.048c-0.083-3.315-0.181-4.014-0.532-4.014c-0.356,0-0.474,0.63-0.532,3.589c-0.098,3.921,0,4.399,0.679,4.399
				C77.456,5089.023,77.515,5088.486,77.456,5085.048z M81.821,5084.956c0-3.291-0.063-3.921-0.444-3.921
				c-0.356,0-0.444,0.698-0.532,4.014c-0.059,3.73-0.029,4.009,0.444,3.906C81.758,5088.872,81.821,5088.447,81.821,5084.956z
				 M108.047,5085.048c-0.059-2.598-0.205-3.716-0.449-3.799c-0.303-0.093-0.391,0.776-0.391,3.677c0,3.193,0.068,3.794,0.449,3.794
				C108.047,5088.72,108.086,5088.183,108.047,5085.048z M118.936,5084.956c0-3.013-0.088-3.623-0.449-3.623
				c-0.352,0-0.439,0.669-0.518,3.716c-0.068,3.438-0.039,3.706,0.439,3.618C118.887,5088.569,118.936,5088.183,118.936,5084.956z
				 M123.262,5084.956c0-3.135-0.068-3.774-0.449-3.774c-0.4,0-0.469,0.64-0.469,3.774c0,3.13,0.068,3.765,0.469,3.765
				C123.193,5088.72,123.262,5088.085,123.262,5084.956z M92.656,5084.956c0-2.627-0.088-3.164-0.43-3.164
				c-0.371,0-0.459,0.537-0.459,3.164c0,2.622,0.088,3.164,0.459,3.164C92.568,5088.12,92.656,5087.578,92.656,5084.956z
				 M42.417,5085.048c-0.063-1.631-0.21-2.51-0.439-2.598c-0.303-0.088-0.396,0.542-0.396,2.476c0,2.139,0.093,2.593,0.449,2.593
				C42.417,5087.519,42.48,5087.089,42.417,5085.048z M51.03,5085.102c-0.122-3.223-0.654-3.257-0.771-0.054
				c-0.063,2.07,0,2.471,0.386,2.471S51.089,5087.119,51.03,5085.102z M75.259,5086.855c0.244-0.908,0.244-3.076,0-3.682
				c-0.088-0.264-0.352-0.483-0.591-0.483c-0.332,0-0.415,0.522-0.415,2.207c0,1.23,0.083,2.319,0.205,2.402
				C74.814,5087.661,75.078,5087.519,75.259,5086.855z M83.989,5085.019c0.054-1.88,0-2.329-0.347-2.329
				c-0.571,0-0.781,0.664-0.781,2.412C82.861,5088.422,83.862,5088.334,83.989,5085.019z M112.5,5085.019
				c0.078-2.183,0.02-2.329-0.537-2.329c-0.537,0-0.596,0.181-0.596,2.207c0,1.23,0.098,2.319,0.205,2.441
				C112.119,5087.88,112.412,5087.119,112.5,5085.019z M57.764,5084.956c0-1.689-0.083-2.119-0.435-2.119
				c-0.356,0-0.483,0.488-0.542,2.212c-0.083,1.987-0.029,2.197,0.444,2.1C57.681,5087.065,57.764,5086.733,57.764,5084.956z
				 M101.504,5085.048c-0.049-1.724-0.166-2.212-0.537-2.212c-0.332,0-0.479,0.459-0.527,1.787
				c-0.117,2.046,0.029,2.593,0.684,2.593C101.504,5087.216,101.572,5086.855,101.504,5085.048z M116.709,5084.956
				c0-1.816-0.078-2.266-0.439-2.266c-0.352,0-0.449,0.449-0.449,2.266c0,1.807,0.098,2.261,0.449,2.261
				C116.631,5087.216,116.709,5086.762,116.709,5084.956z M33.745,5086.191c0.303-1.235,0.029-2.744-0.532-2.837
				c-0.449-0.088-0.537,0.146-0.537,1.543c0,0.869,0.088,1.714,0.215,1.812C33.242,5087.089,33.564,5086.914,33.745,5086.191z
				 M38.022,5084.926c0-1.245-0.117-1.631-0.439-1.631c-0.332,0-0.449,0.386-0.449,1.602c0,0.898,0.083,1.714,0.176,1.812
				C37.749,5087.148,38.022,5086.464,38.022,5084.926z M53.403,5084.98c0.088-1.533,0.029-1.714-0.444-1.626
				c-0.381,0.063-0.562,0.425-0.62,1.416c-0.132,1.538,0.078,2.227,0.62,2.085C53.164,5086.762,53.345,5086.044,53.403,5084.98z
				 M88.359,5084.956c0-1.421-0.093-1.816-0.449-1.816c-0.332,0-0.479,0.459-0.532,1.909c-0.098,1.714-0.029,1.89,0.449,1.807
				C88.267,5086.762,88.359,5086.464,88.359,5084.956z M59.937,5084.98c0.088-1.23,0.029-1.411-0.449-1.323
				c-0.586,0.122-0.83,1.113-0.532,2.261C59.229,5087.089,59.849,5086.552,59.937,5084.98z M73.008,5085.102
				c-0.127-2.012-0.654-2.08-0.776-0.054c-0.059,1.26,0,1.563,0.386,1.563C73.008,5086.611,73.057,5086.308,73.008,5085.102z
				 M90.576,5084.926c0-0.967-0.107-1.328-0.439-1.328s-0.449,0.327-0.449,1.299c0,0.718,0.093,1.411,0.186,1.509
				C90.273,5086.816,90.576,5086.22,90.576,5084.926z M105.869,5084.956c0-1.147-0.107-1.509-0.43-1.509
				c-0.332,0-0.469,0.42-0.537,1.602c-0.088,1.416-0.039,1.587,0.439,1.504C105.762,5086.464,105.869,5086.157,105.869,5084.956z
				 M110.186,5084.926c0-0.967-0.127-1.328-0.439-1.328c-0.332,0-0.459,0.327-0.459,1.299c0,0.718,0.098,1.411,0.186,1.509
				C109.893,5086.816,110.186,5086.22,110.186,5084.926z M114.58,5085.048c-0.107-2.236-0.83-2.329-0.83-0.122
				c0,1.323,0.088,1.685,0.459,1.685S114.629,5086.308,114.58,5085.048z M40.249,5085.073c0-0.728-0.146-1.055-0.503-1.113
				c-0.415-0.093-0.537,0.127-0.537,0.938c0,0.537,0.093,1.113,0.21,1.23C39.863,5086.552,40.249,5086.069,40.249,5085.073z
				 M86.133,5085.102c0-0.869-0.127-1.201-0.454-1.201c-0.317,0-0.439,0.332-0.439,1.201c0,0.874,0.122,1.206,0.439,1.206
				C86.006,5086.308,86.133,5085.976,86.133,5085.102z M103.643,5084.926c0-0.728-0.146-1.025-0.439-1.025s-0.439,0.298-0.439,0.996
				c0,0.566,0.088,1.113,0.166,1.206C103.33,5086.489,103.643,5085.947,103.643,5084.926z M55.542,5085.102
				c0-0.605-0.146-0.903-0.449-0.903c-0.288,0-0.439,0.298-0.439,0.903s0.151,0.908,0.439,0.908
				C55.396,5086.01,55.542,5085.708,55.542,5085.102z M31.489,5084.956c0-0.483-0.176-0.757-0.449-0.757
				c-0.264,0-0.439,0.273-0.439,0.757c0,0.479,0.176,0.752,0.439,0.752C31.313,5085.708,31.489,5085.434,31.489,5084.956z
				 M83.013,5069.13c4.121-0.391,5.791-0.723,9.497-1.87c6.982-2.134,12.686-5.698,18.105-11.211
				c4.648-4.731,7.734-9.409,9.814-14.893c0.879-2.319,0.791-2.744-0.508-2.773c-0.322,0-0.449-0.181-0.361-0.664
				c0.088-0.386-0.107,0-0.469,0.845c-5.801,14.648-17.91,24.81-32.632,27.402c-3.296,0.601-10.22,0.566-13.579,0
				c-15.796-2.808-28.857-14.868-33.252-30.718c-0.864-3.081-1.099-3.491-2.046-3.491c-1.313,0-1.46,0.654-0.781,3.462
				c2.852,11.597,10.962,22.3,21.382,28.237c6.504,3.716,12.212,5.313,20.967,5.947C79.473,5069.404,81.226,5069.282,83.013,5069.13
				z M85.41,5059.936c7.48-1.328,13.398-4.365,18.887-9.736c2.705-2.651,5.4-6.362,7.07-9.707c1.924-3.887,2.881-7.236,2.09-7.236
				c-0.166,0-0.273-0.083-0.273-0.21c0.029-0.146,0.029-0.444,0-0.693c-0.039-0.396-0.059-0.396-0.342,0
				c-0.264,0.396-0.322,0.396-0.576,0c-0.303-0.396-0.332-0.396-0.273,0c0.039,0.249-0.186,1.001-0.439,1.665
				c-0.273,0.659-0.938,2.227-1.455,3.467c-2.197,5.239-7.334,11.416-12.158,14.58c-5.479,3.618-10.386,5.273-16.44,5.522
				c-7.637,0.332-13.809-1.392-20.02-5.581c-6.499-4.37-11.636-11.719-13.833-19.805c-0.771-2.788-0.835-3.394-0.869-9.038
				c0-5.791,0.391-9.502,1.05-9.502c0.356,0,0.532,1.182,1.182,8.896c1.011,11.753,1.665,13.652,4.36,12.993
				c1.436-0.4,2.651-4.341,3.813-12.544c0.474-3.457,1.211-7.598,1.509-8.408c0.356-1.055,0.679,0.449,1.133,4.951
				c0.879,8.711,2.637,13.496,6.265,17.173c3.735,3.77,7.563,5.522,12.676,5.786c9.502,0.552,17.837-6.172,19.722-15.85
				c0.771-3.975,0.322-7.871-0.889-7.871c-0.947,0.029-1.162,0.547-1.104,3.193c0.059,3.145-0.713,6.572-1.953,8.955
				c-1.104,2.021-3.662,4.79-5.771,6.274c-4.727,3.252-11.255,3.613-16.567,0.903c-3.54-1.846-6.895-5.796-8.018-9.521
				c-0.322-0.996-0.713-3.652-0.889-5.879c-0.479-5.459-0.869-8.301-1.431-10.098c-1.274-4.102-3.53-4.561-5.283-1.064
				c-0.952,1.934-1.455,3.828-2.524,9.912c-0.498,2.754-0.947,5.049-1.04,5.098c-0.264,0.283-0.415-0.713-1.035-6.709
				c-0.811-8.057-1.431-10.371-3.037-11.279c-2.344-1.357-3.999,2.256-5.015,10.82c-0.952,8.262,1.602,18.174,6.655,25.562
				c4.219,6.24,11.733,11.763,18.916,13.926C74.58,5060.415,80.42,5060.81,85.41,5059.936z M86.489,5050.805
				c1.274-0.366,3.086-0.962,4.038-1.367c4.541-1.831,10.029-6.802,12.764-11.514c2.285-3.975,4.15-10.396,2.998-10.396
				c-0.205,0-0.264-0.273-0.176-0.654c0.176-0.684,0.146-0.684-0.439,0.049c-0.332,0.42-0.752,0.732-0.859,0.693
				c-0.156-0.059-0.273,0.156-0.273,0.449c0,0.313-0.332,1.543-0.703,2.725c-3.213,9.556-10.791,16.357-19.907,17.837
				c-3.145,0.552-8.315,0.244-11.021-0.596c-2.847-0.913-6.768-3.018-8.965-4.834c-1.694-1.377-3.74-3.848-5.786-6.929
				c-0.83-1.201-1.606-1.504-2.261-0.84c-0.649,0.659-0.386,1.602,1.128,3.921c1.777,2.744,5.85,6.719,8.589,8.374
				c2.275,1.387,6.143,2.891,8.936,3.496C77.373,5051.831,83.574,5051.582,86.489,5050.805z M36.514,5030.429
				c0.767-0.645,1.445-2.734,1.953-6.152c0.713-4.727,1.011-4.707,1.606,0.176c0.298,2.441,0.654,3.076,1.689,3.076
				c1.104,0,1.431-0.967,1.191-3.701c-0.503-6.094-1.963-8.418-4.575-7.266c-1.274,0.537-2.046,2.256-2.734,6.055
				c-0.327,1.777-0.591,3.281-0.591,3.379c-0.029,0.664-0.566-1.025-0.742-2.314c-0.146-1.221-0.391-1.729-0.894-2.061
				c-0.771-0.508-1.724-0.215-2.046,0.635c-0.239,0.674,0.381,4.893,0.894,6.182C33.271,5030.839,34.995,5031.66,36.514,5030.429z
				 M82.3,5029.189c2.705-0.996,4.434-3.525,4.434-6.631c0-3.711-1.973-6.143-5.742-7.08c-2.734-0.723-6.235,1.123-7.69,4.043
				c-0.83,1.641-0.864,4.424-0.034,6.045C75.024,5028.984,78.735,5030.454,82.3,5029.189z M105.049,5025.058
				c-0.078-0.215-0.146-0.059-0.146,0.361c0,0.43,0.068,0.576,0.146,0.4C105.107,5025.605,105.107,5025.244,105.049,5025.058z
				 M29.824,5023.73c0.679-0.684,0.596-1.523-0.269-2.109c-0.679-0.459-0.801-0.459-1.479,0c-0.801,0.547-0.918,1.094-0.449,2.031
				C28.018,5024.335,29.199,5024.394,29.824,5023.73z M47.915,5000.859c0.527-0.244,0.679-1.504,0.205-1.816
				c-0.176-0.117-0.952-0.02-1.724,0.146c-1.162,0.322-1.577,0.322-2.495-0.078c-2.822-1.221-3.091-5.215-0.449-6.855
				c1.782-1.113,3.481-0.713,3.481,0.801c0,0.957-0.059,1.016-1.011,1.016c-0.801,0-1.074,0.156-1.25,0.664
				c-0.269,0.908,0.562,1.445,2.202,1.445c2.192,0,2.432-0.303,2.432-2.861s-0.21-2.832-2.764-3.496c-1.748-0.43-3.53,0-5.044,1.27
				c-3.057,2.559-2.617,7.715,0.83,9.561C43.96,5001.523,46.157,5001.611,47.915,5000.859z M74.99,5001.005
				c0.239-0.82-0.356-1.563-1.162-1.445c-0.615,0.098-0.947,0.84-0.645,1.621C73.423,5001.855,74.78,5001.728,74.99,5001.005z
				 M55.781,4998.417c0.527-0.4,0.596-0.576,0.327-1.084c-0.244-0.459-0.503-0.586-1.162-0.439c-0.591,0.107-1.064-0.02-1.543-0.381
				c-0.591-0.508-0.713-0.898-0.825-3.535c-0.127-2.559-0.239-2.979-0.693-3.066c-1.187-0.244-1.392,0.43-1.392,4.287
				c0,2.471,0.122,3.789,0.356,4.033c0.479,0.479,1.392,0.459,1.602-0.059c0.127-0.332,0.361-0.303,1.25,0.146
				C55.01,4999.023,54.946,4999.023,55.781,4998.417z M61.948,4998.437c0.962-0.381,1.104-0.381,1.523,0
				c0.532,0.586,0.806,0.586,1.245,0.039c0.239-0.264,0.327-1.729,0.269-4.424c-0.088-3.926-0.117-4.053-0.767-4.141
				c-0.356-0.059-0.723,0.088-0.84,0.332c-0.112,0.371-0.327,0.322-1.24-0.146c-2.617-1.348-5.405,0.781-5.405,4.16
				c0,1.865,0.854,3.34,2.378,4.102C60.381,4999.023,60.62,4999.023,61.948,4998.437z M84.941,4990.791
				c0-0.332-0.151-0.693-0.327-0.82c-0.449-0.264-0.972,0.371-0.767,0.908C84.106,4991.572,84.941,4991.484,84.941,4990.791z"/>
		</g>
		<g>
			<path fill="#E52620" d="M59.434,4996.22c-0.894-0.908-1.074-2.295-0.42-3.438c0.474-0.801,0.776-0.996,1.758-1.064
				c0.918-0.059,1.333,0.068,1.772,0.576c0.781,0.84,0.781,2.979,0,3.857C61.836,4996.962,60.205,4997.001,59.434,4996.22z"/>
		</g>
		<g>
			<path fill="#E52620" d="M93.818,4996.513c-1.191-1.201-1.25-3.457-0.107-4.795c1.992-2.402,5.098-0.84,5.01,2.559
				C98.652,4997.119,95.713,4998.437,93.818,4996.513z"/>
		</g>
	</g>
	<g>
		<ellipse fill="#FFFFFF" cx="11.974" cy="8.185" rx="0.357" ry="0.392"/>
	</g>
	<g>
		<ellipse fill="#FFFFFF" cx="11.172" cy="8.734" rx="0.356" ry="0.392"/>
	</g>
	<g>
		<ellipse fill="#FFFFFF" cx="10.505" cy="9.418" rx="0.356" ry="0.393"/>
	</g>
	<g>
		<ellipse fill="#FFFFFF" cx="9.792" cy="10.094" rx="0.356" ry="0.393"/>
	</g>
	<g>
		<rect x="3.243" y="11.684" fill="#E52620" width="6.629" height="2.029"/>
	</g>
	<g>
		<path fill="#FFFFFF" d="M3.364,12.643c0-0.098-0.034-0.182-0.103-0.252c-0.062-0.064-0.135-0.1-0.223-0.104H2.649v0.731
			c0,0.008-0.003,0.017-0.007,0.021c-0.006,0.007-0.013,0.01-0.021,0.01H2.62c-0.009,0-0.016-0.003-0.021-0.01
			c-0.006-0.005-0.009-0.013-0.009-0.021v-1.267c0-0.085,0.029-0.157,0.086-0.218c0.059-0.06,0.129-0.09,0.211-0.09h0.13
			c0.111,0,0.208,0.042,0.287,0.124c0.079,0.082,0.119,0.181,0.119,0.298c0,0.116-0.04,0.216-0.119,0.298
			c-0.034,0.033-0.078,0.064-0.13,0.092c0.049,0.023,0.093,0.056,0.131,0.092c0.079,0.081,0.118,0.18,0.118,0.296v0.375
			c0,0.008-0.003,0.016-0.009,0.021c-0.005,0.007-0.012,0.01-0.02,0.01H3.392c-0.007,0-0.014-0.003-0.019-0.01
			c-0.006-0.005-0.009-0.013-0.009-0.021V12.643z M3.018,12.224c0.095,0,0.176-0.035,0.244-0.104
			c0.069-0.071,0.103-0.156,0.103-0.254c0-0.1-0.034-0.184-0.103-0.254c-0.067-0.07-0.149-0.104-0.244-0.104H2.902
			c-0.074,0-0.134,0.023-0.181,0.071c-0.037,0.034-0.059,0.077-0.066,0.126c-0.004,0.014-0.006,0.033-0.006,0.056v0.464H3.018z"/>
		<path fill="#FFFFFF" d="M4.703,13.048c-0.018,0-0.028-0.011-0.028-0.03v-0.272c-0.034,0.063-0.076,0.118-0.124,0.161
			c-0.102,0.095-0.221,0.142-0.359,0.142c-0.15,0-0.278-0.056-0.385-0.166c-0.106-0.107-0.159-0.24-0.159-0.396
			c0-0.155,0.053-0.286,0.159-0.396c0.106-0.109,0.234-0.165,0.385-0.165c0.149,0,0.278,0.056,0.384,0.165
			c0.106,0.11,0.159,0.241,0.159,0.396v0.532c0,0.02-0.01,0.03-0.029,0.03H4.703z M3.851,12.133
			c-0.095,0.098-0.143,0.216-0.143,0.353c0,0.138,0.047,0.256,0.143,0.354c0.094,0.097,0.208,0.146,0.341,0.146
			c0.132,0,0.247-0.049,0.341-0.146c0.095-0.098,0.142-0.216,0.142-0.354c0-0.137-0.047-0.255-0.142-0.353
			c-0.094-0.097-0.208-0.145-0.341-0.145C4.059,11.988,3.945,12.036,3.851,12.133z"/>
		<path fill="#FFFFFF" d="M5.461,13.048c-0.15,0-0.279-0.056-0.385-0.166c-0.106-0.107-0.159-0.24-0.159-0.396
			c0-0.155,0.053-0.286,0.159-0.396c0.106-0.109,0.234-0.165,0.385-0.165c0.136,0,0.255,0.048,0.359,0.143
			c0.04,0.036,0.081,0.091,0.124,0.162v-0.755c0-0.02,0.009-0.03,0.029-0.03c0.021,0,0.031,0.011,0.031,0.03v1.016
			c-0.002,0.153-0.056,0.285-0.161,0.396C5.737,12.992,5.609,13.048,5.461,13.048z M5.461,11.99c-0.133,0-0.248,0.05-0.341,0.147
			c-0.095,0.097-0.143,0.213-0.143,0.352c0,0.138,0.048,0.255,0.143,0.353c0.094,0.097,0.208,0.146,0.341,0.146
			c0.132,0,0.247-0.049,0.34-0.146c0.096-0.098,0.144-0.215,0.144-0.353c0-0.139-0.047-0.255-0.144-0.352
			C5.708,12.04,5.593,11.99,5.461,11.99z"/>
		<path fill="#FFFFFF" d="M6.248,11.527c-0.009-0.01-0.014-0.021-0.014-0.034c0-0.013,0.005-0.024,0.014-0.034
			c0.009-0.011,0.021-0.016,0.034-0.016c0.013,0,0.023,0.005,0.032,0.016c0.009,0.01,0.014,0.021,0.014,0.034
			c0,0.014-0.005,0.024-0.014,0.034s-0.02,0.014-0.032,0.014C6.269,11.541,6.257,11.537,6.248,11.527z M6.279,13.048
			c-0.019,0-0.028-0.011-0.028-0.03v-1.063c0-0.021,0.01-0.031,0.028-0.031c0.021,0,0.032,0.01,0.032,0.031v1.063
			c0,0.02-0.009,0.03-0.028,0.03H6.279z"/>
		<path fill="#FFFFFF" d="M6.685,12.882c-0.106-0.107-0.16-0.24-0.16-0.396c0-0.155,0.053-0.286,0.16-0.396
			c0.106-0.109,0.234-0.165,0.383-0.165c0.15,0,0.278,0.056,0.384,0.165c0.106,0.11,0.16,0.241,0.16,0.396
			c0,0.156-0.053,0.289-0.16,0.396c-0.105,0.11-0.234,0.166-0.384,0.166C6.918,13.048,6.791,12.992,6.685,12.882z M6.727,12.138
			c-0.095,0.097-0.143,0.213-0.143,0.352c0,0.138,0.048,0.255,0.143,0.353c0.095,0.097,0.208,0.146,0.341,0.146
			c0.132,0,0.247-0.049,0.341-0.146c0.095-0.098,0.142-0.215,0.142-0.353c0-0.139-0.047-0.255-0.142-0.352
			C7.314,12.04,7.2,11.99,7.068,11.99C6.935,11.99,6.822,12.04,6.727,12.138z"/>
	</g>
	<g>
		<path fill="#FFFFFF" d="M8.458,13.231c-0.005-0.01-0.006-0.02-0.004-0.027c0.004-0.01,0.01-0.016,0.019-0.018
			c0.004-0.003,0.009-0.004,0.013-0.004c0.01,0,0.018,0.006,0.025,0.016c0.094,0.148,0.236,0.224,0.427,0.224
			c0.119,0,0.229-0.047,0.327-0.142c0.105-0.101,0.156-0.219,0.156-0.355v-0.221C9.389,12.767,9.349,12.82,9.3,12.865
			c-0.103,0.095-0.224,0.14-0.361,0.14c-0.149,0-0.277-0.055-0.382-0.165c-0.107-0.109-0.16-0.241-0.16-0.396
			c0-0.156,0.053-0.288,0.16-0.398c0.105-0.109,0.233-0.163,0.382-0.163c0.149,0,0.277,0.054,0.384,0.163
			c0.105,0.109,0.16,0.242,0.162,0.396v0.483c0,0.151-0.063,0.285-0.18,0.4c-0.111,0.107-0.234,0.161-0.366,0.161
			C8.725,13.486,8.564,13.401,8.458,13.231z M8.598,12.091c-0.095,0.099-0.142,0.215-0.142,0.354c0,0.137,0.047,0.254,0.142,0.352
			c0.094,0.098,0.208,0.147,0.34,0.147c0.134,0,0.247-0.05,0.342-0.147s0.142-0.215,0.142-0.352v-0.009l-0.001-0.007
			c-0.005-0.135-0.054-0.248-0.147-0.343c-0.094-0.094-0.204-0.142-0.335-0.142C8.807,11.944,8.692,11.994,8.598,12.091z"/>
		<path fill="#FFFFFF" d="M9.726,13.004c-0.021,0-0.028-0.01-0.028-0.029v-0.688c0-0.114,0.039-0.209,0.114-0.287
			c0.075-0.079,0.167-0.118,0.275-0.118h0.066c0.019,0,0.028,0.011,0.028,0.031c0,0.021-0.01,0.032-0.028,0.032h-0.066
			c-0.091,0-0.169,0.033-0.231,0.099c-0.065,0.065-0.098,0.146-0.098,0.243v0.688c0,0.02-0.011,0.029-0.029,0.029H9.726z"/>
		<path fill="#FFFFFF" d="M11.346,13.004c-0.02,0-0.028-0.01-0.028-0.029v-0.271c-0.034,0.063-0.076,0.117-0.125,0.16
			c-0.102,0.095-0.222,0.141-0.358,0.141c-0.149,0-0.277-0.055-0.384-0.164c-0.107-0.109-0.159-0.241-0.159-0.396
			s0.052-0.288,0.159-0.397c0.106-0.109,0.234-0.165,0.384-0.165c0.15,0,0.277,0.056,0.384,0.165
			c0.104,0.109,0.159,0.242,0.159,0.397v0.531c0,0.02-0.009,0.029-0.028,0.029H11.346z M10.492,12.091
			c-0.094,0.097-0.142,0.214-0.142,0.353c0,0.137,0.048,0.254,0.142,0.352c0.095,0.098,0.209,0.146,0.342,0.146
			c0.134,0,0.247-0.048,0.341-0.146c0.095-0.098,0.143-0.215,0.143-0.352c0-0.139-0.048-0.256-0.143-0.353
			c-0.094-0.098-0.207-0.146-0.341-0.146C10.701,11.944,10.587,11.993,10.492,12.091z"/>
		<path fill="#FFFFFF" d="M11.861,13.004c-0.068,0-0.127-0.024-0.176-0.075c-0.049-0.05-0.072-0.109-0.072-0.182v-1.316
			c0-0.021,0.011-0.029,0.029-0.029c0.021,0,0.031,0.009,0.031,0.029v0.45h0.278c0.02,0,0.028,0.011,0.028,0.031
			c0,0.021-0.009,0.032-0.028,0.032h-0.278v0.803c0,0.055,0.018,0.101,0.055,0.139c0.036,0.036,0.082,0.055,0.133,0.055h0.091
			c0.02,0,0.028,0.011,0.028,0.032s-0.009,0.031-0.028,0.031H11.861z"/>
		<path fill="#FFFFFF" d="M12.155,11.484c-0.009-0.011-0.014-0.021-0.014-0.035c0-0.013,0.005-0.024,0.014-0.034
			c0.009-0.009,0.021-0.014,0.035-0.014c0.012,0,0.022,0.005,0.031,0.014c0.009,0.01,0.014,0.021,0.014,0.034
			c0,0.015-0.005,0.024-0.014,0.035c-0.009,0.01-0.02,0.015-0.031,0.015C12.177,11.499,12.164,11.494,12.155,11.484z M12.186,13.004
			c-0.018,0-0.028-0.01-0.028-0.029v-1.063c0-0.021,0.011-0.031,0.028-0.031c0.021,0,0.032,0.011,0.032,0.031v1.063
			c0,0.02-0.009,0.029-0.027,0.029H12.186z"/>
		<path fill="#FFFFFF" d="M12.461,13.004c-0.019,0-0.029-0.01-0.029-0.029c0-0.022,0.011-0.034,0.029-0.034h0.294
			c0.063,0,0.116-0.021,0.161-0.066c0.044-0.046,0.066-0.102,0.066-0.166c0-0.076-0.026-0.13-0.077-0.162
			c-0.022-0.015-0.076-0.034-0.165-0.059c-0.098-0.028-0.167-0.061-0.212-0.099c-0.056-0.049-0.083-0.12-0.083-0.211
			c0-0.082,0.027-0.151,0.083-0.209s0.123-0.088,0.203-0.088h0.208c0.02,0,0.029,0.011,0.029,0.031c0,0.021-0.01,0.032-0.029,0.032
			h-0.208c-0.063,0-0.117,0.023-0.16,0.068c-0.043,0.046-0.064,0.101-0.064,0.165c0,0.079,0.03,0.141,0.091,0.182
			c0.033,0.024,0.094,0.048,0.18,0.072c0.097,0.025,0.161,0.054,0.194,0.083c0.048,0.041,0.07,0.106,0.07,0.193
			c0,0.082-0.027,0.152-0.083,0.208c-0.057,0.06-0.124,0.088-0.204,0.088H12.461z"/>
	</g>
	<g>
		<ellipse fill="#FFFFFF" cx="7.999" cy="12.829" rx="0.203" ry="0.212"/>
	</g>
</g>
</svg>
