<?xml version="1.0" encoding="utf-8"?>
<!-- Generator: Adobe Illustrator 16.0.3, SVG Export Plug-In . SVG Version: 6.00 Build 0)  -->
<!DOCTYPE svg PUBLIC "-//W3C//DTD SVG 1.1//EN" "http://www.w3.org/Graphics/SVG/1.1/DTD/svg11.dtd">
<svg version="1.1" id="Capa_1" xmlns="http://www.w3.org/2000/svg" xmlns:xlink="http://www.w3.org/1999/xlink" x="0px" y="0px"
	 width="192px" height="192px" viewBox="0 0 192 192" enable-background="new 0 0 192 192" xml:space="preserve">
<g>
	<g transform="translate(0.000000,512.000000) scale(0.100000,-0.100000)">
		<g>
			<path fill="#E52620" d="M529.033,5000.639c-149.243-2.397-158.623-3.994-224.644-38.794
				c-28.525-14.81-42.192-25.605-72.671-56.802c-32.046-32.407-39.849-43.608-55.483-76.011
				c-34.766-72.402-32.031-14.404-33.203-646.025c-0.781-490.42-0.396-563.623,5.078-590.42
				c25.396-130.811,126.587-228.008,260.586-251.611c17.197-3.213,193.403-4.014,581.352-3.213l556.748,1.211l27.334,8.799
				c39.854,13.203,87.52,38.789,115.654,62.793c46.875,39.219,87.529,104.805,103.916,166.426
				c6.65,24.395,7.041,62.402,7.041,596.015v570.029l-12.9,37.192c-14.072,41.606-25.781,64.004-50,96.797
				c-48.447,65.61-126.982,111.616-209.424,122.017C1502.246,5002.241,704.062,5003.837,529.033,5000.639z M806.426,4791.03
				c0-127.197-0.781-146.006-5.864-146.006c-5.073,0-5.864,18.809-5.864,146.006c0,127.207,0.791,146.006,5.864,146.006
				C805.644,4937.036,806.426,4918.237,806.426,4791.03z M1208.076,4793.032c-0.801-76.802-2.744-120.005-5.098-120.005
				c-2.334,0-4.307,43.203-5.078,120.005c-0.791,105.605,0,120.005,5.078,120.005
				C1208.076,4913.037,1208.848,4898.637,1208.076,4793.032z M546.611,4792.636c0-84.009-0.781-97.607-5.854-97.607
				c-5.083,0-5.864,13.599-7.031,94.004c-0.391,51.602,0,96.406,1.167,99.204c1.172,3.203,4.302,4.795,7.036,3.599
				C545.444,4890.634,546.611,4867.436,546.611,4792.636z M777.119,4792.636c0-86.006-0.381-93.613-6.636-94.805
				c-6.646-1.206-7.031,5.195-7.031,92.402c0,51.201,1.167,94.8,2.734,96.396C775.561,4895.834,777.119,4881.435,777.119,4792.636z
				 M833.774,4793.032c0-82.803-0.781-96.006-5.859-96.006c-5.073,0-5.864,13.203-5.864,96.006s0.791,96.011,5.864,96.011
				C832.993,4889.042,833.774,4875.834,833.774,4793.032z M977.539,4793.032c-0.781-54.399-2.715-88.403-5.068-89.204
				c-2.334-0.4-4.307,31.606-5.078,88.403c-0.791,77.603,0,88.809,5.078,88.809C977.539,4881.04,978.34,4869.833,977.539,4793.032z
				 M1180.703,4792.231c-1.162-62.002-1.953-73.203-7.031-73.203c-5.059,0-5.85,11.201-7.031,73.203
				c-0.781,71.206-0.781,72.808,7.031,72.808S1181.484,4863.437,1180.703,4792.231z M1238.144,4856.235
				c1.172-5.195,1.563-37.197,1.172-71.201c-1.172-55.205-1.953-62.002-7.822-63.208c-6.641-1.196-7.021,4.004-7.021,68.408
				c0,38.003,1.182,70.796,2.734,72.002C1231.894,4867.436,1236.182,4865.039,1238.144,4856.235z M1524.521,4791.43
				c0.801-66.001,0.41-70.801-5.869-69.604c-6.24,1.206-7.031,7.607-8.184,63.208c-1.182,65.601,0.381,81.602,8.184,78.799
				C1522.168,4862.636,1523.74,4842.631,1524.521,4791.43z M517.314,4790.634c0-52.002-0.786-61.606-5.854-61.606
				c-5.083,0-5.869,9.604-5.869,61.206c0,33.994,1.177,62.803,2.339,64.004C515.361,4861.435,517.314,4847.036,517.314,4790.634z
				 M575.913,4793.032c0-50.796-0.776-59.995-5.859-59.995c-5.078,0-5.85,9.199-5.85,59.995c0,50.806,0.771,60.005,5.85,60.005
				C575.137,4853.037,575.913,4843.837,575.913,4793.032z M403.232,4791.43c0.781-47.197,0.396-50.801-5.859-49.604
				c-6.25,1.211-7.041,6.802-8.203,43.208c-1.172,46.001,0.781,61.597,8.203,58.804
				C400.503,4843.027,402.451,4827.036,403.232,4791.43z M747.827,4791.03c0-45.195-0.791-54.004-5.864-54.004
				s-5.859,8.809-5.859,54.004c0,45.2,0.786,54.004,5.859,54.004S747.827,4836.23,747.827,4791.03z M864.243,4792.231
				c-1.167-43.999-2.339-53.198-7.026-53.198c-4.692,0-5.859,9.199-7.026,53.198c-0.791,50.796-0.791,52.803,7.026,52.803
				C865.019,4845.034,865.019,4843.027,864.243,4792.231z M950.195,4792.231c-1.162-43.999-2.344-53.198-7.041-53.198
				c-4.658,0-6.23,8.394-7.021,47.607c-1.152,51.992,0,58.394,8.994,58.394C950.195,4845.034,950.977,4837.836,950.195,4792.231z
				 M1007.637,4791.03c0-43.604-0.771-51.997-5.879-51.997c-4.678,0-5.84,9.199-7.021,53.198
				c-0.771,49.604-0.391,53.208,5.859,52.002C1006.865,4843.027,1007.637,4837.436,1007.637,4791.03z M1352.617,4792.231
				c-0.771-34.399-2.744-49.194-5.859-50.405c-3.916-1.196-5.078,10.41-5.078,48.809c0,42.397,0.771,50.405,5.859,50.405
				C1352.617,4841.04,1353.398,4833.837,1352.617,4792.231z M1496.016,4791.03c0-39.995-1.201-47.993-5.869-47.993
				c-4.688,0-5.879,8.789-7.041,49.194c-0.771,45.605-0.4,49.204,5.869,48.003
				C1495.215,4839.033,1496.016,4833.837,1496.016,4791.03z M1552.656,4791.03c0-41.597-0.801-50-5.859-50
				c-5.088,0-5.869,8.403-5.869,50s0.781,50.01,5.869,50.01C1551.855,4841.04,1552.656,4832.626,1552.656,4791.03z
				 M1150.244,4791.03c0-34.805-1.172-42.002-5.869-42.002s-5.869,7.197-5.869,42.002c0,34.8,1.172,42.002,5.869,42.002
				S1150.244,4825.83,1150.244,4791.03z M489.18,4792.231c-0.771-21.597-2.729-33.203-5.85-34.399
				c-3.911-1.201-5.083,7.202-5.083,32.803c0,28.403,1.172,34.404,5.859,34.404C489.18,4825.039,489.961,4819.428,489.18,4792.231z
				 M602.485,4793.032c-1.563-42.808-8.599-43.203-10.156-0.801c-0.786,27.598,0,32.808,5.073,32.808
				C602.485,4825.039,603.267,4819.829,602.485,4793.032z M921.289,4816.235c3.125-12.007,3.125-40.806,0-48.804
				c-1.162-3.599-4.678-6.396-7.803-6.396c-4.307,0-5.479,6.797-5.479,29.199c0,16.406,1.172,30.801,2.734,32.002
				C915.42,4827.036,918.945,4825.039,921.289,4816.235z M1036.152,4791.835c0.781-24.805,0-30.801-4.678-30.801
				c-7.422,0-10.166,8.799-10.166,31.997C1021.308,4837.036,1034.59,4835.83,1036.152,4791.835z M1411.211,4791.835
				c1.172-28.809,0.4-30.801-7.021-30.801c-7.041,0-7.822,2.397-7.822,29.199c0,16.406,1.172,30.801,2.754,32.393
				C1406.152,4829.833,1410.049,4819.829,1411.211,4791.835z M691.172,4791.03c0-22.402-1.167-28.003-5.864-28.003
				c-4.683,0-6.25,6.406-7.031,29.204c-1.172,26.406-0.396,29.204,5.864,27.998C690.005,4819.038,691.172,4814.628,691.172,4791.03z
				 M1266.67,4792.231c-0.781-22.798-2.363-29.204-7.041-29.204c-4.297,0-6.25,6.001-7.041,23.613
				c-1.572,27.192,0.391,34.395,8.994,34.395C1266.67,4821.035,1267.441,4816.235,1266.67,4792.231z M1466.689,4791.03
				c0-23.999-1.172-29.995-5.85-29.995c-4.688,0-5.859,5.996-5.859,29.995c0,24.004,1.172,30.005,5.859,30.005
				C1465.517,4821.035,1466.689,4815.034,1466.689,4791.03z M375.103,4807.431c3.906-16.401,0.396-36.396-7.031-37.598
				c-5.864-1.206-7.036,2.002-7.036,20.4c0,11.597,1.172,22.798,2.744,23.994C368.452,4819.428,372.749,4817.036,375.103,4807.431z
				 M431.357,4790.634c0-16.396-1.553-21.606-5.854-21.606s-5.869,5.21-5.869,21.206c0,11.997,1.177,22.798,2.349,23.994
				C427.842,4820.229,431.357,4811.035,431.357,4790.634z M633.735,4791.43c1.177-20.396,0.391-22.803-5.854-21.597
				c-5.083,0.801-7.422,5.596-8.198,18.799c-1.567,20.4,1.162,29.6,8.198,27.603C630.615,4815.034,632.959,4805.434,633.735,4791.43
				z M1093.594,4791.03c0-18.804-1.191-23.999-5.869-23.999c-4.297,0-6.26,6.001-7.031,25.2c-1.162,22.803-0.381,25.2,5.859,24.004
				C1092.402,4815.034,1093.594,4811.035,1093.594,4791.03z M719.687,4791.43c1.167-16.401,0.4-18.809-5.859-17.603
				c-7.813,1.602-10.938,14.805-7.026,30.005C710.317,4819.428,718.52,4812.236,719.687,4791.43z M891.597,4793.032
				c-1.567-26.807-8.604-27.598-10.156-0.801c-0.786,16.802,0,20.801,5.078,20.801S892.383,4809.033,891.597,4793.032z
				 M1122.891,4790.634c0-12.803-1.572-17.603-5.859-17.603c-4.297,0-5.859,4.399-5.859,17.202c0,9.6,1.162,18.799,2.334,19.995
				C1118.984,4815.83,1122.891,4807.832,1122.891,4790.634z M1324.101,4791.03c0-15.2-1.572-19.995-5.869-19.995
				s-6.23,5.601-7.031,21.196c-1.172,18.804-0.391,21.201,5.85,20.005C1322.529,4811.035,1324.101,4807.036,1324.101,4791.03z
				 M1380.742,4790.634c0-12.803-1.572-17.603-5.859-17.603s-5.859,4.399-5.859,17.202c0,9.6,1.162,18.799,2.344,19.995
				C1376.836,4815.83,1380.742,4807.832,1380.742,4790.634z M1438.564,4792.231c-1.553-29.6-10.947-30.796-10.947-1.597
				c0,17.598,1.182,22.397,6.26,22.397C1438.564,4813.032,1439.355,4809.033,1438.564,4792.231z M460.659,4792.636
				c0-9.604-1.953-14.004-6.636-14.805c-5.464-1.196-7.031,1.602-7.031,12.402c0,7.192,1.167,14.8,2.729,16.406
				C455.576,4812.236,460.659,4805.83,460.659,4792.636z M1064.297,4793.032c0-11.602-1.572-16.001-5.879-16.001
				c-4.287,0-5.84,4.399-5.84,16.001c0,11.597,1.553,16.001,5.84,16.001C1062.724,4809.033,1064.297,4804.628,1064.297,4793.032z
				 M1294.805,4790.634c0-9.6-1.963-13.604-5.879-13.604c-3.906,0-5.85,4.004-5.85,13.203c0,7.598,1.182,14.8,2.334,16.001
				C1290.498,4811.43,1294.805,4804.228,1294.805,4790.634z M661.87,4793.032c0-7.998-1.958-11.997-5.854-11.997
				c-3.921,0-5.869,3.999-5.869,11.997s1.948,12.002,5.869,12.002C659.912,4805.034,661.87,4801.03,661.87,4793.032z
				 M345.405,4791.03c0-6.396-2.339-9.995-5.854-9.995c-3.521,0-5.859,3.599-5.859,9.995s2.339,10,5.859,10
				C343.066,4801.03,345.405,4797.426,345.405,4791.03z M1023.262,4581.03c54.326-5.205,76.201-9.604,125.02-24.81
				c91.826-28.398,166.826-75.601,238.33-148.809c60.928-62.798,101.582-124.8,128.916-197.598
				c11.729-30.811,10.547-36.406-6.631-36.807c-4.307,0-5.869-2.393-4.697-8.799c1.182-5.205-1.572,0-6.25,11.191
				c-76.182,194.419-235.576,329.224-429.355,363.628c-43.369,7.988-134.404,7.588-178.564,0
				c-207.847-37.207-379.741-197.212-437.568-407.632c-11.333-40.801-14.458-46.387-26.958-46.387
				c-17.197,0-19.146,8.799-10.161,45.996c37.51,154.004,144.165,296.011,281.294,374.81
				c85.566,49.209,160.581,70.405,275.835,78.813C976.758,4584.628,999.824,4583.022,1023.262,4581.03z M1054.892,4459.018
				c98.467-17.598,176.211-58.003,248.496-129.199c35.547-35.205,71.113-84.414,92.979-128.813
				c25.4-51.592,37.9-95.996,27.354-95.996c-1.953,0-3.516-1.211-3.516-2.793c0.4-2.012,0.4-6.006,0-9.219
				c-0.391-5.195-0.781-5.195-4.307,0c-3.516,5.215-4.287,5.215-7.803,0c-3.906-5.195-4.297-5.195-3.516,0
				c0.371,3.213-2.344,13.213-5.85,22.002c-3.535,8.809-12.119,29.6-19.17,46.006c-28.896,69.604-96.484,151.606-159.775,193.613
				c-72.285,48.003-136.748,70.005-216.445,73.198c-100.41,4.395-181.685-18.398-263.33-73.999
				c-85.562-57.998-153.154-155.615-182.065-262.813c-10.151-37.197-10.938-45.205-11.333-120.01
				c0-76.797,5.083-126.006,13.682-126.006c4.683,0,7.036,15.615,15.62,118.008c13.291,155.996,21.885,181.211,57.432,172.402
				c18.75-5.195,34.775-57.598,50.015-166.406c6.25-45.996,16.016-100.791,19.922-111.592c4.688-14.004,8.984,5.986,14.849,65.596
				c11.724,115.615,34.771,179.219,82.432,227.998c49.229,50.01,99.634,73.213,166.831,76.816
				c125.01,7.202,234.814-82.002,259.434-210.41c10.146-52.793,4.277-104.404-11.738-104.404c-12.5,0.4-15.244,7.197-14.443,42.402
				c0.781,41.602-9.395,87.188-25.801,118.809c-14.463,26.797-48.057,63.604-75.781,83.193
				c-62.129,43.213-148.086,48.008-218.013,12.002c-46.489-24.395-90.64-76.797-105.488-126.406
				c-4.297-13.193-9.375-48.389-11.724-78.008c-6.25-72.402-11.323-109.98-18.75-133.984c-16.802-54.404-46.494-60.42-69.541-14.014
				c-12.5,25.605-19.146,50.81-33.213,131.611c-6.641,36.387-12.5,66.807-13.677,67.607c-3.511,3.594-5.459-9.619-13.677-89.219
				c-10.547-106.806-18.74-137.597-39.844-149.609c-30.864-17.988-52.749,30-66.035,143.613
				c-12.5,109.619,21.113,241.211,87.524,339.214c55.469,82.803,154.331,156.011,248.867,184.814
				C912.285,4465.419,989.277,4470.62,1054.892,4459.018z M1068.974,4337.812c16.797-4.795,40.625-12.803,53.135-17.993
				c59.766-24.404,132.041-90.41,167.988-152.817c30.098-52.793,54.697-137.998,39.463-137.998c-2.734,0-3.516-3.604-2.334-8.799
				c2.334-8.809,1.943-8.809-5.879,0.801c-4.297,5.586-9.756,9.609-11.318,9.199c-1.963-0.811-3.525,1.992-3.525,5.996
				s-4.277,20.41-9.375,36.006c-42.197,126.807-141.807,217.197-261.758,236.802c-41.406,7.202-109.394,3.198-144.946-7.998
				c-37.505-11.997-89.077-40.005-117.988-63.999c-22.275-18.403-49.224-51.201-76.191-92.002
				c-10.938-16.006-21.094-20.01-29.678-11.201c-8.608,8.799-5.083,21.201,14.839,52.002
				c23.438,36.396,76.963,89.199,112.915,111.201c30.078,18.398,80.864,38.408,117.593,46.396
				C949.033,4351.411,1030.693,4348.217,1068.974,4337.812z M411.44,4067.412c10.161-8.408,19.15-36.416,25.776-81.611
				c9.38-62.803,13.291-62.412,21.108,2.402c3.896,32.412,8.594,40.801,22.261,40.801c14.458,0,18.76-12.793,15.63-49.209
				c-6.646-80.791-25.781-111.592-60.161-96.406c-16.807,7.217-26.963,30.01-35.947,80.41c-4.302,23.604-7.817,43.594-7.817,44.805
				c-0.391,8.799-7.422-13.604-9.761-30.801c-1.953-16.006-5.083-22.803-11.729-27.197c-10.151-6.807-22.651-2.793-26.948,8.389
				c-3.13,8.809,5.073,64.805,11.719,82.012C368.853,4073.007,391.509,4083.798,411.44,4067.412z M1013.887,4051.005
				c35.557-13.193,58.213-46.807,58.213-88.008c0-49.209-25.771-81.602-75.4-94.004c-35.947-9.59-82.06,14.814-101.186,53.613
				c-10.952,21.992-11.343,58.789-0.391,80.381C918.154,4048.203,967.002,4067.802,1013.887,4051.005z M1313.164,3996.21
				c-1.162-2.813-1.963-0.811-1.963,4.795c0,5.586,0.801,7.598,1.963,5.205C1313.935,4003.408,1313.935,3998.603,1313.164,3996.21z
				 M323.525,3978.583c8.989-9.189,7.822-20.391-3.521-27.979c-8.979-6.006-10.542-6.006-19.526,0
				c-10.552,7.188-12.109,14.385-5.859,26.797C299.702,3986.601,315.332,3987.402,323.525,3978.583z M561.455,3674.99
				c7.036-3.193,8.994-20,2.749-24.004c-2.354-1.602-12.51-0.4-22.671,1.992c-15.229,4.014-20.698,4.014-32.822-1.191
				c-37.109-15.996-40.63-69.199-5.85-90.801c23.442-14.805,45.708-9.59,45.708,10.391c0,12.813-0.776,13.604-13.281,13.604
				c-10.552,0-14.063,2.012-16.406,8.809c-3.521,12.002,7.422,19.199,28.911,19.199c28.911,0,32.031-4.004,32.031-37.998
				c0-34.004-2.739-37.617-36.333-46.387c-23.057-5.615-46.494,0-66.421,16.758c-40.244,34.023-34.38,102.422,10.933,126.816
				C509.497,3683.789,538.408,3685,561.455,3674.99z M917.783,3676.992c3.115-10.811-4.697-20.811-15.234-19.199
				c-8.213,1.201-12.52,11.201-8.604,21.592C897.065,3688.183,915.039,3686.582,917.783,3676.992z M665,3642.588
				c7.031-5.205,7.808-7.598,4.292-14.395c-3.125-5.996-6.641-7.598-15.229-5.615c-7.822,1.211-14.072-0.381-20.327-5.195
				c-7.808-6.797-9.38-12.012-10.938-46.807c-1.558-33.994-3.115-39.58-8.984-40.781c-15.625-3.213-18.359,5.576-18.359,56.787
				c0,32.803,1.558,50.4,4.692,53.613c6.245,6.396,18.354,6.006,21.094-0.801c1.558-4.404,4.688-4.023,16.411,1.992
				C654.839,3650.586,654.062,3650.586,665,3642.588z M746.255,3642.988c12.505-5.186,14.458-5.186,19.932,0
				c7.026,7.598,10.552,7.598,16.411,0.391c3.12-3.594,4.297-22.783,3.511-58.789c-1.172-52.002-1.563-53.594-10.156-54.795
				c-4.688-0.811-9.38,1.201-10.938,4.385c-1.563,4.814-4.302,4.404-16.411-1.982c-34.385-18.008-71.104,10.381-71.104,55.186
				c0,24.805,11.328,44.414,31.255,54.404C725.552,3650.586,728.677,3650.586,746.255,3642.988z M1048.642,3541.367
				c0-4.375-1.924-9.17-4.287-10.791c-5.869-3.604-12.881,4.795-10.166,12.002
				C1037.715,3551.777,1048.642,3550.586,1048.642,3541.367z"/>
		</g>
		<g>
			<path fill="#E52620" d="M713.047,3613.379c-11.719-11.992-14.053-30.381-5.464-45.596c6.245-10.391,10.156-13.193,23.042-13.994
				c12.119-0.811,17.583,0.801,23.447,7.588c10.161,11.211,10.161,39.609,0,51.201
				C744.697,3623.379,723.213,3623.789,713.047,3613.379z"/>
		</g>
		<g>
			<path fill="#E52620" d="M1165.478,3617.383c-15.635-15.996-16.406-46.006-1.563-63.594
				c26.162-32.012,67.188-11.211,66.035,34.004C1229.141,3625.381,1190.488,3642.988,1165.478,3617.383z"/>
		</g>
	</g>
	<g>
		<ellipse fill="#FFFFFF" cx="150.642" cy="95.006" rx="4.688" ry="5.201"/>
	</g>
	<g>
		<ellipse fill="#FFFFFF" cx="140.096" cy="102.3" rx="4.689" ry="5.199"/>
	</g>
	<g>
		<ellipse fill="#FFFFFF" cx="131.315" cy="111.379" rx="4.688" ry="5.201"/>
	</g>
	<g>
		<ellipse fill="#FFFFFF" cx="121.939" cy="120.339" rx="4.688" ry="5.201"/>
	</g>
	<g>
		<rect x="35.778" y="141.435" fill="#E52620" width="87.219" height="26.935"/>
	</g>
	<g>
		<path fill="#FFFFFF" d="M37.374,154.172c0-1.305-0.451-2.421-1.354-3.352c-0.808-0.854-1.786-1.319-2.933-1.398h-5.118v9.721
			c0,0.118-0.033,0.211-0.099,0.278c-0.075,0.079-0.165,0.118-0.268,0.118h-0.028c-0.104,0-0.193-0.039-0.269-0.118
			c-0.075-0.077-0.112-0.17-0.112-0.278v-16.808c0-1.127,0.376-2.089,1.128-2.883c0.771-0.792,1.697-1.19,2.777-1.19h1.706
			c1.476,0,2.736,0.543,3.78,1.634c1.043,1.088,1.564,2.403,1.564,3.953c0,1.539-0.521,2.854-1.564,3.94
			c-0.443,0.463-1.011,0.868-1.707,1.223c0.639,0.334,1.213,0.739,1.72,1.22c1.034,1.079,1.551,2.392,1.551,3.94v4.971
			c0,0.108-0.038,0.201-0.113,0.278c-0.075,0.079-0.165,0.118-0.268,0.118H37.74c-0.094,0-0.179-0.039-0.253-0.118
			c-0.076-0.077-0.113-0.17-0.113-0.278V154.172z M32.805,148.599c1.25,0,2.322-0.461,3.214-1.384
			c0.903-0.939,1.354-2.062,1.354-3.366c0-1.313-0.451-2.439-1.354-3.38c-0.892-0.923-1.964-1.383-3.214-1.383h-1.508
			c-0.978,0-1.772,0.313-2.383,0.94c-0.48,0.471-0.771,1.034-0.875,1.691c-0.047,0.186-0.07,0.431-0.07,0.736v6.145H32.805z"/>
		<path fill="#FFFFFF" d="M54.984,159.539c-0.245,0-0.366-0.132-0.366-0.396v-3.617c-0.451,0.854-0.997,1.567-1.636,2.146
			c-1.335,1.245-2.91,1.867-4.723,1.867c-1.975,0-3.658-0.731-5.048-2.189c-1.4-1.452-2.101-3.206-2.101-5.266
			c0-2.058,0.7-3.813,2.101-5.264c1.39-1.461,3.074-2.191,5.048-2.191c1.974,0,3.656,0.73,5.047,2.191
			c1.4,1.451,2.101,3.206,2.101,5.264v7.059c0,0.265-0.126,0.396-0.381,0.396H54.984z M43.775,147.409
			c-1.25,1.292-1.875,2.852-1.875,4.675c0,1.824,0.625,3.382,1.875,4.677c1.241,1.294,2.735,1.941,4.484,1.941
			c1.749,0,3.243-0.647,4.483-1.941c1.25-1.295,1.875-2.853,1.875-4.677c0-1.823-0.626-3.383-1.875-4.675
			c-1.241-1.285-2.735-1.928-4.483-1.928C46.51,145.481,45.017,146.124,43.775,147.409z"/>
		<path fill="#FFFFFF" d="M64.953,159.539c-1.974,0-3.657-0.731-5.047-2.189c-1.4-1.452-2.101-3.206-2.101-5.266
			c0-2.058,0.701-3.813,2.101-5.264c1.391-1.461,3.074-2.191,5.047-2.191c1.787,0,3.366,0.627,4.738,1.881
			c0.527,0.481,1.068,1.203,1.622,2.162V138.66c0-0.267,0.131-0.398,0.395-0.398c0.263,0,0.395,0.132,0.395,0.398v13.468
			c-0.019,2.04-0.725,3.786-2.115,5.235C68.585,158.815,66.908,159.539,64.953,159.539z M64.953,145.511
			c-1.748,0-3.242,0.648-4.483,1.941c-1.25,1.296-1.874,2.853-1.874,4.676c0,1.824,0.624,3.382,1.874,4.677
			c1.241,1.295,2.736,1.94,4.483,1.94c1.75,0,3.243-0.646,4.484-1.94c1.25-1.295,1.875-2.853,1.875-4.677
			c0-1.823-0.625-3.38-1.875-4.676C68.196,146.159,66.702,145.511,64.953,145.511z"/>
		<path fill="#FFFFFF" d="M75.317,139.365c-0.124-0.13-0.183-0.279-0.183-0.457c0-0.176,0.06-0.33,0.183-0.456
			c0.121-0.128,0.272-0.19,0.451-0.19c0.169,0,0.309,0.063,0.423,0.19c0.122,0.126,0.183,0.28,0.183,0.456
			c0,0.178-0.061,0.327-0.183,0.457c-0.123,0.126-0.264,0.19-0.423,0.19C75.589,139.556,75.438,139.491,75.317,139.365z
			 M75.725,159.539c-0.252,0-0.381-0.132-0.381-0.396v-14.104c0-0.273,0.128-0.41,0.381-0.41c0.273,0,0.409,0.137,0.409,0.41v14.104
			c0,0.265-0.122,0.396-0.366,0.396H75.725z"/>
		<path fill="#FFFFFF" d="M81.056,157.35c-1.401-1.452-2.101-3.206-2.101-5.266c0-2.058,0.7-3.813,2.101-5.264
			c1.391-1.461,3.074-2.191,5.048-2.191c1.974,0,3.656,0.73,5.047,2.191c1.399,1.451,2.102,3.206,2.102,5.264
			c0,2.06-0.702,3.813-2.102,5.266c-1.391,1.458-3.073,2.189-5.047,2.189C84.129,159.539,82.446,158.808,81.056,157.35z
			 M81.62,147.452c-1.251,1.296-1.876,2.853-1.876,4.676c0,1.824,0.625,3.382,1.876,4.677c1.241,1.295,2.735,1.94,4.484,1.94
			c1.748,0,3.243-0.646,4.482-1.94c1.251-1.295,1.877-2.853,1.877-4.677c0-1.823-0.626-3.38-1.877-4.676
			c-1.24-1.293-2.734-1.941-4.482-1.941C84.354,145.511,82.86,146.159,81.62,147.452z"/>
	</g>
	<g>
		<path fill="#FFFFFF" d="M104.394,161.966c-0.067-0.106-0.08-0.229-0.043-0.367c0.047-0.107,0.126-0.182,0.238-0.22
			c0.076-0.03,0.134-0.044,0.17-0.044c0.131,0,0.243,0.068,0.339,0.205c1.229,1.979,3.107,2.971,5.625,2.971
			c1.569,0,3.003-0.627,4.302-1.881c1.37-1.336,2.059-2.91,2.059-4.723v-2.926c-0.433,0.834-0.973,1.545-1.621,2.134
			c-1.366,1.244-2.943,1.866-4.739,1.866c-1.974,0-3.657-0.729-5.047-2.191c-1.401-1.461-2.103-3.215-2.103-5.264
			c0-2.057,0.701-3.818,2.103-5.279c1.39-1.45,3.073-2.177,5.047-2.177c1.954,0,3.633,0.727,5.033,2.177
			c1.393,1.451,2.099,3.2,2.116,5.251v6.409c0,2.021-0.78,3.788-2.34,5.31c-1.467,1.432-3.069,2.146-4.81,2.146
			C107.905,165.363,105.794,164.231,104.394,161.966z M106.24,146.849c-1.249,1.297-1.876,2.854-1.876,4.678
			c0,1.823,0.627,3.383,1.876,4.677c1.239,1.292,2.733,1.94,4.482,1.94s3.242-0.648,4.483-1.94c1.251-1.294,1.877-2.854,1.877-4.677
			v-0.104l-0.029-0.104c-0.047-1.773-0.692-3.282-1.933-4.528c-1.231-1.255-2.695-1.882-4.398-1.882
			C108.974,144.909,107.479,145.557,106.24,146.849z"/>
		<path fill="#FFFFFF" d="M121.06,158.967c-0.245,0-0.367-0.134-0.367-0.396v-9.147c0.008-1.499,0.512-2.768,1.509-3.81
			c0.985-1.038,2.194-1.558,3.624-1.558h0.859c0.254,0,0.38,0.138,0.38,0.411c0,0.294-0.126,0.442-0.38,0.442h-0.859
			c-1.205,0-2.225,0.432-3.061,1.293c-0.837,0.872-1.265,1.947-1.283,3.221v9.147c0,0.263-0.128,0.396-0.381,0.396H121.06z"/>
		<path fill="#FFFFFF" d="M142.378,158.967c-0.245,0-0.367-0.134-0.367-0.396v-3.618c-0.452,0.854-0.995,1.568-1.637,2.147
			c-1.334,1.244-2.908,1.867-4.722,1.867c-1.974,0-3.656-0.73-5.047-2.19c-1.403-1.45-2.104-3.206-2.104-5.265
			c0-2.06,0.7-3.813,2.104-5.265c1.391-1.461,3.073-2.191,5.047-2.191c1.975,0,3.657,0.73,5.047,2.191
			c1.401,1.451,2.102,3.205,2.102,5.265v7.059c0,0.263-0.127,0.396-0.381,0.396H142.378z M131.167,146.835
			c-1.25,1.296-1.876,2.854-1.876,4.677s0.626,3.383,1.876,4.675c1.243,1.295,2.735,1.942,4.485,1.942
			c1.748,0,3.243-0.647,4.482-1.942c1.25-1.292,1.876-2.852,1.876-4.675s-0.626-3.381-1.876-4.677
			c-1.239-1.283-2.734-1.926-4.482-1.926C133.902,144.909,132.41,145.552,131.167,146.835z"/>
		<path fill="#FFFFFF" d="M149.173,158.967c-0.902,0-1.672-0.332-2.313-0.999c-0.638-0.658-0.957-1.456-0.957-2.398v-17.483
			c0-0.265,0.131-0.396,0.396-0.396c0.261,0,0.393,0.132,0.393,0.396v5.97h3.667c0.254,0,0.38,0.138,0.38,0.411
			c0,0.294-0.126,0.442-0.38,0.442h-3.667v10.66c0,0.706,0.245,1.311,0.733,1.809c0.479,0.5,1.064,0.751,1.748,0.751h1.186
			c0.254,0,0.38,0.138,0.38,0.412c0,0.285-0.126,0.426-0.38,0.426H149.173z"/>
		<path fill="#FFFFFF" d="M153.037,138.793c-0.121-0.129-0.184-0.28-0.184-0.458c0-0.176,0.063-0.327,0.184-0.455
			c0.122-0.127,0.271-0.19,0.452-0.19c0.167,0,0.311,0.063,0.422,0.19c0.122,0.128,0.183,0.279,0.183,0.455
			c0,0.178-0.061,0.329-0.183,0.458c-0.122,0.128-0.262,0.189-0.422,0.189C153.309,138.982,153.159,138.921,153.037,138.793z
			 M153.445,158.967c-0.252,0-0.381-0.134-0.381-0.396v-14.104c0-0.273,0.129-0.411,0.381-0.411c0.272,0,0.41,0.138,0.41,0.411
			v14.104c0,0.263-0.123,0.396-0.366,0.396H153.445z"/>
		<path fill="#FFFFFF" d="M157.069,158.967c-0.263,0-0.394-0.134-0.394-0.396c0-0.294,0.131-0.441,0.394-0.441h3.863
			c0.819,0,1.519-0.299,2.102-0.897c0.583-0.607,0.875-1.338,0.875-2.19c0-1.01-0.335-1.73-1-2.162
			c-0.293-0.195-1.017-0.455-2.172-0.779c-1.281-0.363-2.207-0.795-2.78-1.293c-0.74-0.669-1.112-1.604-1.112-2.81
			c0-1.088,0.366-2.015,1.101-2.778c0.731-0.774,1.619-1.163,2.663-1.163h2.749c0.255,0,0.381,0.138,0.381,0.411
			c0,0.294-0.126,0.442-0.381,0.442h-2.749c-0.817,0-1.514,0.3-2.085,0.897c-0.566,0.606-0.848,1.338-0.848,2.19
			c0,1.058,0.396,1.862,1.185,2.413c0.442,0.313,1.231,0.63,2.369,0.954c1.26,0.344,2.111,0.711,2.552,1.102
			c0.62,0.55,0.93,1.408,0.93,2.575c0,1.078-0.364,2-1.099,2.764c-0.743,0.775-1.637,1.162-2.68,1.162H157.069z"/>
	</g>
	<g>
		<path fill="#FFFFFF" d="M101.016,156.639c0,1.553-1.197,2.815-2.671,2.815c-1.475,0-2.668-1.263-2.668-2.815
			s1.193-2.811,2.668-2.811C99.818,153.828,101.016,155.086,101.016,156.639z"/>
	</g>
</g>
</svg>
