<?xml version="1.0" encoding="utf-8"?>
<!-- Generator: Adobe Illustrator 16.0.3, SVG Export Plug-In . SVG Version: 6.00 Build 0)  -->
<!DOCTYPE svg PUBLIC "-//W3C//DTD SVG 1.1//EN" "http://www.w3.org/Graphics/SVG/1.1/DTD/svg11.dtd">
<svg version="1.1" id="Capa_1" xmlns="http://www.w3.org/2000/svg" xmlns:xlink="http://www.w3.org/1999/xlink" x="0px" y="0px"
	 width="512px" height="512px" viewBox="0 0 512 512" enable-background="new 0 0 512 512" xml:space="preserve">
<g>
	<g transform="translate(0.000000,512.000000) scale(0.100000,-0.100000)">
		<g>
			<path fill="#E52620" d="M1388.281,4773.735c-395.015-6.182-419.834-10.303-594.59-99.946
				c-75.483-38.125-111.675-65.947-192.339-146.318c-84.79-83.462-105.469-112.31-146.831-195.776
				c-92.036-186.499-84.8-37.095-87.9-1664.087c-2.07-1263.252-1.035-1451.826,13.442-1520.849
				c67.217-336.934,335.039-587.324,689.726-648.125c45.498-8.242,511.865-10.313,1538.696-8.242l1473.545,3.086l72.393,22.676
				c105.459,34.004,231.631,99.941,306.074,161.777c124.092,100.977,231.641,269.941,275.059,428.633
				c17.598,62.852,18.623,160.742,18.623,1535.288v1468.31l-34.131,95.825c-37.227,107.163-68.242,164.863-132.354,249.355
				c-128.223,168.984-336.064,287.48-554.277,314.272C3964.15,4777.856,1851.543,4781.982,1388.281,4773.735z M2122.47,4233.808
				c0-327.661-2.07-376.094-15.513-376.094s-15.508,48.433-15.508,376.094c0,327.666,2.065,376.094,15.508,376.094
				S2122.47,4561.474,2122.47,4233.808z M3185.488,4238.959c-2.061-197.837-7.236-309.116-13.438-309.116
				s-11.367,111.279-13.447,309.116c-2.061,272.026,0,309.121,13.447,309.121
				C3185.488,4548.081,3187.568,4510.986,3185.488,4238.959z M1434.814,4237.929c0-216.382-2.07-251.416-15.513-251.416
				c-13.438,0-15.508,35.034-18.608,242.144c-1.035,132.92,0,248.325,3.101,255.537c3.101,8.247,11.372,12.363,18.608,9.277
				C1431.714,4490.375,1434.814,4430.615,1434.814,4237.929z M2044.917,4237.929c0-221.533-1.03-241.113-17.583-244.199
				c-17.583-3.096-18.613,13.394-18.613,238.018c0,131.89,3.101,244.204,7.241,248.325
				C2040.776,4503.774,2044.917,4466.679,2044.917,4237.929z M2194.853,4238.959c0-213.291-2.07-247.295-15.508-247.295
				c-13.442,0-15.513,34.004-15.513,247.295c0,213.296,2.07,247.295,15.513,247.295
				C2192.783,4486.254,2194.853,4452.255,2194.853,4238.959z M2575.381,4238.959c-2.061-140.132-7.227-227.715-13.428-229.775
				c-6.201-1.03-11.367,81.401-13.447,227.715c-2.061,199.897,0,228.75,13.447,228.75
				C2575.381,4465.649,2577.461,4436.796,2575.381,4238.959z M3113.105,4236.899c-3.096-159.712-5.176-188.56-18.604-188.56
				c-13.457,0-15.518,28.848-18.623,188.56c-2.061,183.413-2.061,187.534,18.623,187.534S3115.185,4420.312,3113.105,4236.899z
				 M3265.117,4401.762c3.096-13.394,4.141-95.825,3.096-183.408c-3.096-142.192-5.176-159.712-20.684-162.803
				c-17.568-3.091-18.604,10.303-18.604,176.196c0,97.886,3.096,182.378,7.236,185.469
				C3248.584,4430.615,3259.951,4424.433,3265.117,4401.762z M4023.085,4234.838c2.08-170.015,1.045-182.378-15.518-179.287
				c-16.543,3.091-18.604,19.575-21.709,162.803c-3.086,168.984,1.025,210.2,21.709,202.988
				C4016.884,4418.247,4021.025,4366.728,4023.085,4234.838z M1357.261,4232.778c0-133.95-2.07-158.682-15.513-158.682
				s-15.513,24.731-15.513,157.651c0,87.583,3.101,161.772,6.206,164.863C1352.09,4415.161,1357.261,4378.066,1357.261,4232.778z
				 M1512.368,4238.959c0-130.859-2.07-154.556-15.508-154.556c-13.442,0-15.513,23.696-15.513,154.556
				c0,130.864,2.07,154.561,15.513,154.561C1510.298,4393.52,1512.368,4369.824,1512.368,4238.959z M1055.307,4234.838
				c2.07-121.587,1.035-130.859-15.508-127.769s-18.613,17.515-21.714,111.284c-3.105,118.496,2.065,158.677,21.714,151.47
				C1048.071,4367.758,1053.242,4326.542,1055.307,4234.838z M1967.358,4233.808c0-116.431-2.07-139.102-15.508-139.102
				c-13.442,0-15.513,22.671-15.513,139.102c0,116.436,2.07,139.102,15.513,139.102
				C1965.288,4372.91,1967.358,4350.244,1967.358,4233.808z M2275.508,4236.899c-3.096-113.345-6.196-137.041-18.608-137.041
				s-15.513,23.696-18.613,137.041c-2.07,130.859-2.07,136.011,18.613,136.011
				C2277.578,4372.91,2277.578,4367.758,2275.508,4236.899z M2502.998,4236.899c-3.086-113.345-6.201-137.041-18.604-137.041
				c-12.412,0-16.533,21.641-18.613,122.617c-3.096,133.95,0,150.435,23.789,150.435
				C2502.998,4372.91,2505.078,4354.365,2502.998,4236.899z M2655.019,4233.808c0-112.31-2.08-133.95-15.508-133.95
				c-12.422,0-15.518,23.696-18.623,137.041c-2.061,127.773-1.035,137.046,15.508,133.95
				C2652.939,4367.758,2655.019,4353.334,2655.019,4233.808z M3568.095,4236.899c-2.061-88.613-7.236-126.738-15.518-129.829
				c-10.342-3.091-13.428,26.787-13.428,125.708c0,109.224,2.061,129.829,15.508,129.829
				C3568.095,4362.607,3570.176,4344.062,3568.095,4236.899z M3947.607,4233.808c0-103.037-3.115-123.647-15.508-123.647
				c-12.422,0-15.518,22.671-18.623,126.738c-2.061,117.466-1.035,126.738,15.508,123.647S3947.607,4344.062,3947.607,4233.808z
				 M4097.548,4233.808c0-107.158-2.08-128.799-15.518-128.799c-13.447,0-15.508,21.641-15.508,128.799
				s2.061,128.799,15.508,128.799C4095.468,4362.607,4097.548,4340.966,4097.548,4233.808z M3032.451,4233.808
				c0-89.644-3.105-108.193-15.508-108.193c-12.422,0-15.508,18.55-15.508,108.193c0,89.648,3.086,108.193,15.508,108.193
				C3029.345,4342.001,3032.451,4323.457,3032.451,4233.808z M1282.803,4236.899c-2.065-55.64-7.236-85.522-15.508-88.613
				c-10.342-3.091-13.442,18.55-13.442,84.492c0,73.159,3.101,88.613,15.513,88.613
				C1282.803,4321.391,1284.873,4306.967,1282.803,4236.899z M1582.685,4238.959c-4.136-110.254-22.749-111.279-26.885-2.061
				c-2.07,71.099,0,84.492,13.442,84.492S1584.756,4307.998,1582.685,4238.959z M2426.494,4298.72
				c8.262-30.908,8.262-105.098,0-125.703c-3.115-9.272-12.412-16.489-20.684-16.489c-11.387,0-14.482,17.52-14.482,75.22
				c0,42.246,3.096,79.341,7.236,82.432C2410.976,4326.542,2420.283,4321.391,2426.494,4298.72z M2730.498,4235.874
				c2.08-63.887,0-79.346-12.402-79.346c-19.648,0-26.885,22.671-26.885,82.432
				C2691.211,4352.304,2726.377,4349.213,2730.498,4235.874z M3723.203,4235.874c3.105-74.194,1.045-79.346-18.604-79.346
				c-18.623,0-20.684,6.187-20.684,75.22c0,42.246,3.096,79.341,7.236,83.462
				C3709.775,4333.759,3720.107,4307.998,3723.203,4235.874z M1817.422,4233.808c0-57.7-3.101-72.129-15.513-72.129
				s-16.548,16.489-18.613,75.22c-3.105,68.008-1.035,75.22,15.513,72.124C1814.321,4305.937,1817.422,4294.599,1817.422,4233.808z
				 M3340.595,4236.899c-2.061-58.73-6.201-75.22-18.604-75.22c-11.367,0-16.543,15.459-18.623,60.796
				c-4.141,70.068,1.035,88.613,23.799,88.613C3340.595,4311.088,3342.676,4298.72,3340.595,4236.899z M3870.048,4233.808
				c0-61.821-3.105-77.28-15.508-77.28c-12.422,0-15.508,15.459-15.508,77.28c0,61.826,3.086,77.28,15.508,77.28
				C3866.943,4311.088,3870.048,4295.634,3870.048,4233.808z M980.859,4276.054c10.342-42.246,1.035-93.765-18.618-96.855
				c-15.508-3.091-18.608,5.151-18.608,52.549c0,29.883,3.101,58.73,7.241,61.821
				C963.276,4306.967,974.653,4300.786,980.859,4276.054z M1129.766,4232.778c0-42.246-4.136-55.64-15.513-55.64
				s-15.513,13.394-15.513,54.609c0,30.908,3.101,58.73,6.206,61.821C1120.459,4309.023,1129.766,4285.327,1129.766,4232.778z
				 M1665.41,4234.838c3.105-52.549,1.035-58.73-15.513-55.64c-13.438,2.061-19.644,14.424-21.709,48.428
				c-4.141,52.549,3.101,76.245,21.709,71.094C1657.139,4295.634,1663.345,4270.903,1665.41,4234.838z M2882.519,4233.808
				c0-48.428-3.115-61.821-15.518-61.821c-11.367,0-16.543,15.454-18.623,64.912c-3.086,58.735-1.025,64.917,15.518,61.821
				C2879.404,4295.634,2882.519,4285.327,2882.519,4233.808z M1892.905,4234.838c3.101-42.246,1.04-48.428-15.513-45.337
				c-20.679,4.121-28.95,38.125-18.608,77.28C1868.091,4306.967,1889.805,4288.417,1892.905,4234.838z M2347.895,4238.959
				c-4.131-69.038-22.754-71.094-26.88-2.061c-2.07,43.276,0,53.579,13.438,53.579
				C2347.895,4290.478,2349.966,4280.175,2347.895,4238.959z M2960.068,4232.778c0-32.969-4.141-45.337-15.508-45.337
				s-15.508,11.333-15.508,44.307c0,24.731,3.086,48.428,6.191,51.519C2949.726,4297.695,2960.068,4277.089,2960.068,4232.778z
				 M3492.617,4233.808c0-39.15-4.141-51.519-15.508-51.519c-11.377,0-16.543,14.424-18.623,54.609
				c-3.096,48.428-1.035,54.614,15.508,51.519C3488.476,4285.327,3492.617,4275.024,3492.617,4233.808z M3642.558,4232.778
				c0-32.969-4.141-45.337-15.518-45.337c-11.367,0-15.508,11.333-15.508,44.307c0,24.731,3.086,48.428,6.201,51.519
				C3632.217,4297.695,3642.558,4277.089,3642.558,4232.778z M3795.586,4236.899c-4.121-76.25-28.945-79.341-28.945-4.121
				c0,45.337,3.096,57.7,16.543,57.7C3795.586,4290.478,3797.666,4280.175,3795.586,4236.899z M1207.319,4237.929
				c0-24.727-5.171-36.064-17.583-38.12c-14.473-3.096-18.608,4.121-18.608,31.938c0,18.55,3.101,38.125,7.241,42.246
				C1193.877,4288.417,1207.319,4271.933,1207.319,4237.929z M2804.961,4238.959c0-29.878-4.141-41.216-15.508-41.216
				c-11.377,0-15.518,11.338-15.518,41.216c0,29.883,4.141,41.216,15.518,41.216
				C2800.82,4280.175,2804.961,4268.842,2804.961,4238.959z M3415.058,4232.778c0-24.731-5.166-35.034-15.508-35.034
				s-15.508,10.303-15.508,34.004c0,19.58,3.086,38.125,6.201,41.216C3403.691,4286.362,3415.058,4267.812,3415.058,4232.778z
				 M1739.863,4238.959c0-20.605-5.171-30.913-15.508-30.913c-10.342,0-15.513,10.308-15.513,30.913
				c0,20.61,5.171,30.913,15.513,30.913C1734.692,4269.873,1739.863,4259.57,1739.863,4238.959z M902.27,4233.808
				c0-16.484-6.206-25.762-15.513-25.762s-15.513,9.277-15.513,25.762c0,16.489,6.206,25.762,15.513,25.762
				S902.27,4250.297,902.27,4233.808z M2696.386,3692.851c143.74-13.394,201.641-24.727,330.898-63.887
				c243.008-73.154,441.543-194.736,630.781-383.306c161.309-161.768,268.857-321.479,341.24-509.009
				c31.025-79.346,27.91-93.774-17.588-94.8c-11.367,0-15.508-6.177-12.402-22.676c3.115-13.389-4.141,0-16.543,28.853
				c-201.64,500.776-623.545,848.022-1136.445,936.631c-114.775,20.61-355.713,19.58-472.563,0
				c-550.127-95.82-1005.117-507.979-1158.164-1049.971c-29.985-105.098-38.257-119.531-71.348-119.531
				c-45.498,0-50.669,22.695-26.885,118.496c99.268,396.709,381.567,762.5,744.526,965.488
				c226.46,126.738,425.005,181.343,730.058,202.983C2573.32,3702.124,2634.336,3698.003,2696.386,3692.851z M2780.136,3378.584
				c260.576-45.342,466.367-149.409,657.666-332.817c94.092-90.674,188.213-217.422,246.113-331.787
				c67.217-132.93,100.303-247.3,72.383-247.3c-5.166,0-9.307-3.086-9.307-7.207c1.035-5.156,1.035-15.449,0-23.711
				c-1.025-13.379-2.061-13.379-11.367,0c-9.316,13.418-11.377,13.418-20.684,0c-10.342-13.379-11.367-13.379-9.307,0
				c1.025,8.262-6.201,34.023-15.518,56.68c-9.307,22.676-32.051,76.255-50.674,118.491
				c-76.523,179.297-255.4,390.527-422.939,498.721c-191.299,123.647-361.924,180.317-572.852,188.56
				c-265.767,11.328-480.85-47.402-696.973-190.625c-226.46-149.404-405.356-400.825-481.88-676.963
				c-26.885-95.82-28.95-116.426-29.985-309.121c0-197.832,13.442-324.57,36.191-324.57c12.412,0,18.613,40.176,41.362,303.965
				c35.161,401.836,57.91,466.763,152.012,444.082c49.634-13.379,92.031-148.359,132.358-428.633
				c16.548-118.496,42.397-259.648,52.734-287.48c12.412-36.074,23.789,15.449,39.302,168.984
				c31.021,297.793,92.026,461.621,218.183,587.319c130.288,128.809,263.687,188.569,441.548,197.847
				c330.898,18.545,621.465-211.226,686.621-542.002c26.885-135.996,11.377-268.926-31.016-268.926
				c-33.086,1.035-40.342,18.555-38.262,109.219c2.061,107.168-24.814,224.629-68.262,306.035
				c-38.252,69.043-127.178,163.843-200.596,214.312c-164.414,111.294-391.914,123.652-577.021,30.918
				c-123.047-62.852-239.893-197.827-279.194-325.601c-11.372-33.984-24.814-124.668-31.025-200.938
				c-16.538-186.484-29.98-283.34-49.634-345.176c-44.463-140.117-123.052-155.586-184.062-36.055
				c-33.091,65.938-50.664,130.859-87.896,339.004c-17.578,93.75-33.091,172.07-36.191,174.141
				c-9.307,9.277-14.473-24.746-36.191-229.785c-27.92-275.117-49.634-354.473-105.479-385.371
				c-81.689-46.367-139.6,77.266-174.756,369.902c-33.086,282.344,55.84,621.333,231.631,873.779
				c146.841,213.291,408.457,401.851,658.706,476.045C2402.695,3395.063,2606.406,3408.467,2780.136,3378.584z M2817.363,3066.372
				c44.473-12.363,107.549-32.974,140.625-46.367c158.223-62.856,349.521-232.876,444.648-393.613
				c79.639-136.001,144.775-355.493,104.463-355.493c-7.256,0-9.316-9.277-6.221-22.656c6.221-22.676,5.166-22.676-15.518,2.051
				c-11.367,14.434-25.85,24.746-29.971,23.711c-5.166-2.07-9.307,5.156-9.307,15.449c0,10.313-11.367,52.559-24.824,92.754
				c-111.689,326.616-375.371,559.482-692.822,609.976c-109.609,18.545-289.551,8.242-383.643-20.605
				c-99.268-30.913-235.767-103.042-312.29-164.863c-58.945-47.397-130.288-131.89-201.645-236.992
				c-28.95-41.226-55.84-51.519-78.584-28.843c-22.754,22.671-13.447,54.604,39.292,133.945
				c62.046,93.76,203.716,229.775,298.852,286.445c79.614,47.397,214.043,98.916,311.25,119.526
				C2499.912,3101.401,2716.035,3093.159,2817.363,3066.372z M1077.026,2369.824c26.885-21.641,50.669-93.77,68.247-210.195
				c24.819-161.777,35.161-160.742,55.84,6.191c10.342,83.457,22.754,105.078,58.945,105.078c38.257,0,49.634-32.949,41.362-126.719
				c-17.583-208.145-68.252-287.48-159.248-248.34c-44.468,18.555-71.353,77.285-95.132,207.129
				c-11.377,60.781-20.684,112.285-20.684,115.391c-1.035,22.656-19.648-35.039-25.85-79.336
				c-5.171-41.211-13.442-58.73-31.025-70.078c-26.885-17.5-59.971-7.188-71.348,21.641c-8.276,22.676,13.438,166.934,31.021,211.23
				C964.311,2384.258,1024.287,2412.09,1077.026,2369.824z M2671.562,2327.578c94.092-33.984,154.082-120.547,154.082-226.68
				c0-126.738-68.252-210.215-199.59-242.148c-95.127-24.727-217.148,38.145-267.817,138.086
				c-28.955,56.66-29.985,151.445-1.03,207.09C2418.213,2320.371,2547.47,2370.859,2671.562,2327.578z M3463.652,2186.426
				c-3.086-7.227-5.166-2.07-5.166,12.363c0,14.414,2.08,19.57,5.166,13.398C3465.732,2204.961,3465.732,2192.597,3463.652,2186.426
				z M844.36,2141.074c23.784-23.691,20.679-52.539-9.307-72.129c-23.779-15.449-27.92-15.449-51.704,0
				c-27.92,18.555-32.056,37.09-15.508,69.043C781.279,2161.699,822.642,2163.75,844.36,2141.074z M1474.106,1359.004
				c18.618-8.223,23.789-51.523,7.241-61.816c-6.206-4.121-33.091-1.035-59.976,5.156c-40.332,10.293-54.81,10.293-86.865-3.086
				c-98.237-41.211-107.539-178.262-15.513-233.906c62.046-38.125,120.991-24.746,120.991,26.777
				c0,32.988-2.07,35.039-35.156,35.039c-27.925,0-37.231,5.156-43.433,22.676c-9.307,30.918,19.644,49.453,76.519,49.453
				c76.523,0,84.795-10.313,84.795-97.891s-7.241-96.855-96.167-119.512c-61.016-14.434-123.057,0-175.791,43.262
				c-106.514,87.578-91.001,263.789,28.95,326.641C1336.577,1381.68,1413.096,1384.766,1474.106,1359.004z M2417.177,1364.16
				c8.271-27.813-12.412-53.574-40.332-49.453c-21.709,3.086-33.081,28.848-22.739,55.625
				C2362.378,1393.027,2409.941,1388.887,2417.177,1364.16z M1748.135,1275.547c18.618-13.398,20.684-19.57,11.377-37.09
				c-8.271-15.449-17.578-19.57-40.327-14.434c-20.684,3.105-37.227-1.016-53.774-13.398c-20.684-17.5-24.819-30.918-28.95-120.547
				c-4.136-87.578-8.271-102.012-23.784-105.098c-41.362-8.242-48.604,14.414-48.604,146.309c0,84.492,4.136,129.824,12.412,138.086
				c16.543,16.484,48.599,15.449,55.84-2.07c4.136-11.328,12.402-10.313,43.428,5.156
				C1721.255,1296.152,1719.184,1296.152,1748.135,1275.547z M1963.218,1276.582c33.096-13.379,38.267-13.379,52.744,0
				c18.613,19.57,27.925,19.57,43.433,1.016c8.271-9.258,11.372-58.711,9.302-151.445c-3.101-133.965-4.131-138.086-26.88-141.172
				c-12.412-2.07-24.824,3.086-28.955,11.328c-4.141,12.363-11.377,11.348-43.433-5.137
				c-90.996-46.367-188.203,26.777-188.203,142.168c0,63.906,29.99,114.395,82.729,140.156
				C1908.418,1296.152,1916.684,1296.152,1963.218,1276.582z M2763.594,1014.844c0-11.328-5.166-23.672-11.367-27.813
				c-15.508-9.277-34.131,12.363-26.904,30.918C2734.638,1041.66,2763.594,1038.555,2763.594,1014.844z"/>
		</g>
		<g>
			<path fill="#E52620" d="M1875.322,1200.332c-31.021-30.918-37.222-78.32-14.468-117.461
				c16.538-26.797,26.88-34.004,61.001-36.055c32.065-2.07,46.533,2.051,62.046,19.551c26.89,28.867,26.89,102.012,0,131.895
				C1959.087,1226.074,1902.217,1227.129,1875.322,1200.332z"/>
		</g>
		<g>
			<path fill="#E52620" d="M3072.793,1210.625c-41.367-41.211-43.447-118.496-4.141-163.809
				c69.268-82.441,177.852-28.867,174.756,87.578C3241.328,1231.23,3138.955,1276.582,3072.793,1210.625z"/>
		</g>
	</g>
	<g>
		<ellipse fill="#FFFFFF" cx="397.518" cy="248.606" rx="12.409" ry="13.396"/>
	</g>
	<g>
		<ellipse fill="#FFFFFF" cx="369.606" cy="267.393" rx="12.409" ry="13.395"/>
	</g>
	<g>
		<ellipse fill="#FFFFFF" cx="346.366" cy="290.781" rx="12.409" ry="13.396"/>
	</g>
	<g>
		<ellipse fill="#FFFFFF" cx="321.548" cy="313.863" rx="12.409" ry="13.395"/>
	</g>
	<g>
		<rect x="93.501" y="368.199" fill="#E52620" width="230.845" height="69.379"/>
	</g>
	<g>
		<path fill="#FFFFFF" d="M97.725,401.01c0-3.357-1.195-6.236-3.583-8.635c-2.14-2.199-4.727-3.396-7.762-3.6H72.833v25.037
			c0,0.305-0.088,0.545-0.262,0.721c-0.199,0.201-0.435,0.303-0.708,0.303h-0.075c-0.274,0-0.51-0.102-0.709-0.303
			c-0.2-0.203-0.299-0.441-0.299-0.721v-43.295c0-2.902,0.995-5.379,2.985-7.424c2.04-2.045,4.491-3.066,7.352-3.066h4.516
			c3.906,0,7.24,1.4,10.002,4.205c2.761,2.803,4.142,6.197,4.142,10.188c0,3.965-1.381,7.348-4.142,10.152
			c-1.17,1.188-2.675,2.232-4.516,3.143c1.692,0.859,3.209,1.908,4.553,3.145c2.737,2.779,4.105,6.162,4.105,10.15v12.803
			c0,0.279-0.1,0.518-0.299,0.721c-0.2,0.201-0.435,0.303-0.709,0.303h-0.075c-0.249,0-0.473-0.102-0.671-0.303
			c-0.2-0.203-0.298-0.441-0.298-0.721V401.01z M85.633,386.654c3.309,0,6.145-1.188,8.509-3.561
			c2.388-2.424,3.583-5.314,3.583-8.674c0-3.385-1.195-6.289-3.583-8.711c-2.364-2.373-5.2-3.561-8.509-3.561H81.64
			c-2.588,0-4.69,0.807-6.307,2.424c-1.269,1.211-2.041,2.664-2.314,4.355c-0.125,0.48-0.187,1.111-0.187,1.895v15.832H85.633z"/>
		<path fill="#FFFFFF" d="M144.336,414.836c-0.647,0-0.971-0.34-0.971-1.023v-9.316c-1.194,2.197-2.637,4.041-4.329,5.529
			c-3.533,3.209-7.701,4.811-12.501,4.811c-5.225,0-9.679-1.881-13.36-5.643c-3.708-3.738-5.561-8.258-5.561-13.561
			s1.853-9.824,5.561-13.561c3.682-3.764,8.135-5.645,13.36-5.645c5.225,0,9.678,1.881,13.36,5.645
			c3.707,3.736,5.561,8.258,5.561,13.561v18.18c0,0.684-0.335,1.023-1.007,1.023H144.336z M114.667,383.588
			c-3.309,3.332-4.963,7.348-4.963,12.045s1.654,8.711,4.963,12.045c3.284,3.332,7.24,4.998,11.868,4.998
			c4.627,0,8.583-1.666,11.867-4.998c3.309-3.334,4.963-7.348,4.963-12.045s-1.654-8.713-4.963-12.045
			c-3.284-3.309-7.24-4.963-11.867-4.963C121.907,378.625,117.951,380.279,114.667,383.588z"/>
		<path fill="#FFFFFF" d="M170.721,414.836c-5.225,0-9.679-1.881-13.36-5.643c-3.708-3.738-5.561-8.258-5.561-13.561
			s1.853-9.824,5.561-13.561c3.681-3.764,8.135-5.645,13.36-5.645c4.727,0,8.906,1.615,12.539,4.848
			c1.393,1.238,2.824,3.096,4.292,5.568v-25.795c0-0.682,0.347-1.021,1.044-1.021s1.045,0.34,1.045,1.021v34.695
			c-0.05,5.254-1.916,9.75-5.598,13.486C180.337,412.969,175.896,414.836,170.721,414.836z M170.721,378.701
			c-4.627,0-8.583,1.666-11.868,5c-3.309,3.332-4.963,7.348-4.963,12.043c0,4.697,1.654,8.713,4.963,12.045
			c3.284,3.336,7.24,5.002,11.868,5.002s8.583-1.666,11.868-5.002c3.309-3.332,4.964-7.348,4.964-12.045
			c0-4.695-1.655-8.711-4.964-12.043C179.305,380.367,175.349,378.701,170.721,378.701z"/>
		<path fill="#FFFFFF" d="M198.151,362.867c-0.324-0.328-0.486-0.719-0.486-1.174s0.162-0.848,0.486-1.176
			c0.322-0.326,0.721-0.49,1.194-0.49c0.448,0,0.82,0.164,1.119,0.49c0.323,0.328,0.485,0.721,0.485,1.176s-0.162,0.846-0.485,1.174
			s-0.697,0.492-1.119,0.492C198.872,363.359,198.473,363.195,198.151,362.867z M199.232,414.836c-0.671,0-1.008-0.34-1.008-1.023
			v-36.324c0-0.707,0.337-1.061,1.008-1.061c0.722,0,1.083,0.354,1.083,1.061v36.324c0,0.684-0.323,1.023-0.97,1.023H199.232z"/>
		<path fill="#FFFFFF" d="M213.34,409.193c-3.708-3.738-5.561-8.258-5.561-13.561s1.852-9.824,5.561-13.561
			c3.682-3.764,8.135-5.645,13.36-5.645s9.678,1.881,13.36,5.645c3.707,3.736,5.561,8.258,5.561,13.561s-1.854,9.822-5.561,13.561
			c-3.682,3.762-8.135,5.643-13.36,5.643S217.021,412.955,213.34,409.193z M214.832,383.701c-3.309,3.332-4.963,7.348-4.963,12.043
			c0,4.697,1.654,8.713,4.963,12.045c3.284,3.336,7.241,5.002,11.868,5.002s8.583-1.666,11.868-5.002
			c3.309-3.332,4.963-7.348,4.963-12.045c0-4.695-1.654-8.711-4.963-12.043c-3.284-3.334-7.241-5-11.868-5
			S218.116,380.367,214.832,383.701z"/>
	</g>
	<g>
		<path fill="#FFFFFF" d="M275.107,421.088c-0.176-0.277-0.212-0.594-0.113-0.947c0.126-0.277,0.336-0.467,0.635-0.568
			c0.199-0.076,0.35-0.111,0.448-0.111c0.348,0,0.646,0.174,0.895,0.529c3.26,5.1,8.225,7.65,14.891,7.65
			c4.155,0,7.95-1.615,11.383-4.848c3.632-3.436,5.449-7.488,5.449-12.16v-7.535c-1.145,2.145-2.575,3.977-4.291,5.49
			c-3.609,3.207-7.788,4.811-12.541,4.811c-5.225,0-9.678-1.881-13.359-5.643c-3.708-3.764-5.561-8.283-5.561-13.561
			c0-5.303,1.853-9.836,5.561-13.598c3.682-3.738,8.135-5.607,13.359-5.607c5.175,0,9.616,1.869,13.324,5.607
			c3.682,3.736,5.548,8.244,5.597,13.521v16.514c0,5.203-2.064,9.762-6.194,13.676c-3.882,3.688-8.123,5.529-12.727,5.529
			C284.4,429.838,278.813,426.92,275.107,421.088z M279.995,382.148c-3.309,3.336-4.962,7.35-4.962,12.047
			c0,4.695,1.653,8.713,4.962,12.045c3.284,3.332,7.24,4.998,11.867,4.998c4.628,0,8.584-1.666,11.868-4.998
			c3.308-3.332,4.964-7.35,4.964-12.045v-0.266l-0.074-0.266c-0.125-4.57-1.83-8.459-5.114-11.666
			c-3.26-3.232-7.14-4.848-11.644-4.848C287.235,377.15,283.279,378.816,279.995,382.148z"/>
		<path fill="#FFFFFF" d="M319.217,413.361c-0.646,0-0.969-0.342-0.969-1.023v-23.561c0.023-3.863,1.354-7.131,3.992-9.811
			c2.611-2.674,5.809-4.016,9.592-4.016h2.276c0.672,0,1.008,0.355,1.008,1.061c0,0.76-0.336,1.139-1.008,1.139h-2.276
			c-3.186,0-5.886,1.109-8.099,3.332c-2.214,2.248-3.347,5.014-3.396,8.295v23.561c0,0.682-0.337,1.023-1.008,1.023H319.217z"/>
		<path fill="#FFFFFF" d="M375.645,413.361c-0.648,0-0.972-0.342-0.972-1.023v-9.318c-1.193,2.199-2.636,4.041-4.328,5.531
			c-3.532,3.207-7.701,4.811-12.502,4.811c-5.225,0-9.678-1.881-13.359-5.645c-3.708-3.736-5.561-8.256-5.561-13.559
			c0-5.305,1.853-9.824,5.561-13.561c3.682-3.764,8.135-5.646,13.359-5.646c5.226,0,9.679,1.883,13.36,5.646
			c3.706,3.736,5.561,8.256,5.561,13.561v18.18c0,0.682-0.336,1.023-1.008,1.023H375.645z M345.976,382.113
			c-3.311,3.332-4.964,7.348-4.964,12.045c0,4.695,1.653,8.711,4.964,12.043c3.284,3.334,7.24,5,11.867,5s8.584-1.666,11.868-5
			c3.308-3.332,4.962-7.348,4.962-12.043c0-4.697-1.654-8.713-4.962-12.045c-3.284-3.309-7.241-4.963-11.868-4.963
			S349.26,378.805,345.976,382.113z"/>
		<path fill="#FFFFFF" d="M393.632,413.361c-2.388,0-4.428-0.857-6.12-2.576c-1.692-1.691-2.538-3.75-2.538-6.176v-45.035
			c0-0.682,0.349-1.021,1.046-1.021c0.696,0,1.044,0.34,1.044,1.021v15.377h9.703c0.672,0,1.008,0.355,1.008,1.061
			c0,0.76-0.336,1.139-1.008,1.139h-9.703v27.459c0,1.82,0.646,3.373,1.941,4.662c1.268,1.285,2.812,1.93,4.627,1.93h3.135
			c0.672,0,1.008,0.354,1.008,1.061c0,0.734-0.336,1.1-1.008,1.1H393.632z"/>
		<path fill="#FFFFFF" d="M403.857,361.393c-0.323-0.328-0.485-0.719-0.485-1.174s0.162-0.848,0.485-1.176s0.721-0.49,1.195-0.49
			c0.446,0,0.82,0.162,1.119,0.49c0.323,0.328,0.484,0.721,0.484,1.176s-0.161,0.846-0.484,1.174s-0.697,0.492-1.119,0.492
			C404.578,361.885,404.181,361.721,403.857,361.393z M404.939,413.361c-0.67,0-1.008-0.342-1.008-1.023v-36.326
			c0-0.705,0.338-1.061,1.008-1.061c0.722,0,1.083,0.355,1.083,1.061v36.326c0,0.682-0.323,1.023-0.97,1.023H404.939z"/>
		<path fill="#FFFFFF" d="M414.531,413.361c-0.697,0-1.044-0.342-1.044-1.023c0-0.756,0.347-1.137,1.044-1.137h10.226
			c2.165,0,4.017-0.77,5.56-2.311c1.544-1.566,2.315-3.445,2.315-5.643c0-2.6-0.885-4.459-2.65-5.568
			c-0.771-0.506-2.688-1.174-5.748-2.008c-3.383-0.934-5.835-2.047-7.352-3.334c-1.965-1.717-2.948-4.127-2.948-7.234
			c0-2.803,0.972-5.189,2.912-7.158c1.938-1.994,4.292-2.994,7.053-2.994h7.276c0.673,0,1.008,0.355,1.008,1.061
			c0,0.76-0.335,1.139-1.008,1.139h-7.276c-2.165,0-4.007,0.77-5.523,2.311c-1.493,1.564-2.238,3.447-2.238,5.643
			c0,2.729,1.044,4.799,3.135,6.213c1.169,0.809,3.258,1.627,6.269,2.463c3.335,0.883,5.585,1.828,6.754,2.84
			c1.643,1.414,2.464,3.623,2.464,6.629c0,2.777-0.969,5.152-2.91,7.119c-1.967,1.996-4.33,2.994-7.091,2.994H414.531z"/>
	</g>
	<g>
		<ellipse fill="#FFFFFF" cx="259.101" cy="407.367" rx="7.066" ry="7.246"/>
	</g>
</g>
</svg>
