<?xml version="1.0" encoding="utf-8"?>
<!-- Generator: Adobe Illustrator 16.0.3, SVG Export Plug-In . SVG Version: 6.00 Build 0)  -->
<!DOCTYPE svg PUBLIC "-//W3C//DTD SVG 1.1//EN" "http://www.w3.org/Graphics/SVG/1.1/DTD/svg11.dtd">
<svg version="1.1" id="Capa_1" xmlns="http://www.w3.org/2000/svg" xmlns:xlink="http://www.w3.org/1999/xlink" x="0px" y="0px"
	 width="240px" height="90px" viewBox="0 0 240 90" enable-background="new 0 0 240 90" xml:space="preserve">
<g>
	<linearGradient id="SVGID_1_" gradientUnits="userSpaceOnUse" x1="6.1216" y1="43.7852" x2="85.8926" y2="43.7852">
		<stop  offset="0" style="stop-color:#EA5B0C"/>
		<stop  offset="1" style="stop-color:#312783"/>
	</linearGradient>
	<path fill="url(#SVGID_1_)" d="M24.708,3.018c-7.18,0.117-7.632,0.196-10.808,1.904c-1.373,0.726-2.03,1.256-3.497,2.788
		c-1.542,1.59-1.917,2.14-2.669,3.729c-1.673,3.554-1.542,0.707-1.598,31.705C6.099,67.209,6.117,70.802,6.38,72.117
		c1.222,6.421,6.091,11.188,12.538,12.347c0.827,0.16,9.304,0.2,27.97,0.16l26.787-0.063l1.315-0.429
		c1.917-0.648,4.21-1.905,5.564-3.084c2.255-1.925,4.211-5.144,4.999-8.166c0.319-1.198,0.339-3.063,0.339-29.249V15.66
		l-0.621-1.826c-0.677-2.041-1.241-3.141-2.406-4.75c-2.331-3.22-6.109-5.479-10.076-5.988C71.531,2.938,33.128,2.86,24.708,3.018z
		 M48.486,23.609c2.613,0.256,3.666,0.473,6.015,1.219c4.418,1.393,8.026,3.708,11.466,7.301c2.932,3.082,4.888,6.125,6.203,9.698
		c0.565,1.512,0.507,1.788-0.319,1.807c-0.208,0-0.282,0.116-0.226,0.43c0.057,0.255-0.076,0-0.3-0.549
		c-3.666-9.541-11.334-16.157-20.657-17.844c-2.087-0.392-6.467-0.373-8.592,0c-10,1.825-18.271,9.678-21.052,20.002
		c-0.545,2.004-0.696,2.278-1.297,2.278c-0.828,0-0.921-0.431-0.489-2.258c1.804-7.557,6.936-14.526,13.534-18.394
		c4.117-2.415,7.726-3.455,13.271-3.867C46.249,23.434,47.358,23.512,48.486,23.609z M50.008,29.597
		c4.737,0.864,8.478,2.846,11.955,6.341c1.711,1.727,3.421,4.142,4.474,6.321c1.222,2.532,1.823,4.711,1.315,4.711
		c-0.094,0-0.169,0.061-0.169,0.136c0.02,0.101,0.02,0.297,0,0.455c-0.019,0.254-0.038,0.254-0.208,0
		c-0.169-0.256-0.206-0.256-0.375,0c-0.188,0.254-0.207,0.254-0.169,0c0.018-0.158-0.113-0.648-0.282-1.081
		c-0.169-0.433-0.583-1.454-0.922-2.257c-1.39-3.416-4.642-7.441-7.688-9.502c-3.478-2.356-6.579-3.436-10.414-3.592
		c-4.83-0.216-8.74,0.902-12.668,3.63c-4.117,2.848-7.369,7.637-8.76,12.899c-0.489,1.824-0.526,2.218-0.545,5.889
		c0,3.77,0.244,6.184,0.658,6.184c0.225,0,0.339-0.767,0.751-5.793c0.64-7.654,1.053-8.892,2.764-8.459
		c0.902,0.255,1.673,2.827,2.406,8.167c0.301,2.257,0.771,4.945,0.959,5.476c0.226,0.688,0.432-0.293,0.714-3.219
		c0.564-5.674,1.673-8.797,3.966-11.188c2.368-2.455,4.793-3.593,8.026-3.77c6.014-0.354,11.298,4.023,12.482,10.325
		c0.488,2.591,0.206,5.124-0.564,5.124c-0.602-0.021-0.733-0.354-0.695-2.08c0.037-2.042-0.452-4.279-1.241-5.833
		c-0.696-1.313-2.313-3.12-3.646-4.083c-2.99-2.119-7.125-2.354-10.49-0.587c-2.236,1.196-4.36,3.769-5.075,6.202
		c-0.206,0.647-0.45,2.374-0.564,3.829c-0.3,3.553-0.544,5.397-0.901,6.575c-0.809,2.669-2.237,2.966-3.346,0.688
		c-0.602-1.258-0.921-2.494-1.598-6.46c-0.319-1.784-0.602-3.277-0.657-3.316c-0.169-0.177-0.263,0.472-0.658,4.378
		c-0.508,5.241-0.902,6.754-1.917,7.343c-1.485,0.881-2.538-1.474-3.178-7.049c-0.601-5.379,1.017-11.835,4.212-16.646
		c2.668-4.064,7.425-7.656,11.973-9.069C43.146,29.283,46.851,29.027,50.008,29.597z M50.685,35.545
		c0.809,0.235,1.955,0.628,2.557,0.882c2.876,1.198,6.353,4.436,8.083,7.501c1.448,2.59,2.632,6.771,1.898,6.771
		c-0.132,0-0.169,0.178-0.112,0.433c0.112,0.433,0.092,0.433-0.283-0.039c-0.207-0.275-0.47-0.472-0.544-0.451
		c-0.095,0.038-0.17-0.099-0.17-0.295c0-0.197-0.206-1.001-0.451-1.768c-2.031-6.221-6.823-10.658-12.594-11.62
		c-1.992-0.355-5.264-0.158-6.973,0.392c-1.805,0.589-4.286,1.964-5.677,3.142c-1.071,0.902-2.368,2.511-3.666,4.514
		c-0.525,0.786-1.014,0.981-1.427,0.549c-0.414-0.431-0.245-1.04,0.713-2.552c1.128-1.785,3.704-4.375,5.433-5.456
		c1.447-0.903,3.89-1.884,5.658-2.277C44.915,34.879,48.844,35.035,50.685,35.545z M19.05,48.815
		c0.488,0.411,0.921,1.786,1.24,4.005c0.451,3.082,0.639,3.063,1.016-0.117c0.187-1.591,0.413-2.004,1.071-2.004
		c0.696,0,0.902,0.629,0.752,2.416c-0.32,3.966-1.241,5.476-2.895,4.731c-0.808-0.354-1.297-1.474-1.729-3.948
		c-0.207-1.157-0.376-2.139-0.376-2.196c-0.019-0.433-0.357,0.668-0.47,1.512c-0.094,0.786-0.244,1.116-0.564,1.333
		c-0.489,0.335-1.09,0.138-1.297-0.41c-0.151-0.435,0.245-3.182,0.564-4.025C17.001,48.54,18.09,48.012,19.05,48.815z
		 M48.035,49.619c1.711,0.649,2.801,2.299,2.801,4.318c0,2.417-1.24,4.008-3.628,4.615c-1.729,0.47-3.948-0.729-4.868-2.631
		c-0.526-1.08-0.546-2.886-0.019-3.946C43.429,49.757,45.779,48.796,48.035,49.619z M62.434,52.311
		c-0.056,0.138-0.095,0.038-0.095-0.236s0.039-0.372,0.095-0.255C62.471,51.957,62.471,52.192,62.434,52.311z M14.82,53.174
		c0.432,0.452,0.375,1.002-0.17,1.373c-0.432,0.295-0.507,0.295-0.939,0c-0.507-0.351-0.582-0.705-0.282-1.313
		C13.674,52.781,14.425,52.741,14.82,53.174z M60.273,56.652c0,1.26-1.053,2.282-2.351,2.282c-1.299,0-2.352-1.022-2.352-2.282
		s1.053-2.282,2.352-2.282C59.221,54.37,60.273,55.393,60.273,56.652z"/>
</g>
<g>
	<ellipse fill="#FFFFFF" cx="71.732" cy="43.785" rx="2.256" ry="2.551"/>
</g>
<g>
	<ellipse fill="#FFFFFF" cx="66.658" cy="47.362" rx="2.256" ry="2.553"/>
</g>
<g>
	<ellipse fill="#FFFFFF" cx="62.433" cy="51.819" rx="2.256" ry="2.551"/>
</g>
<g>
	<ellipse fill="#524F4F" cx="233.254" cy="45" rx="2.622" ry="2.551"/>
</g>
<g>
	<path fill="#FFFFFF" d="M112.722,38.706c0-2.563-0.955-4.758-2.857-6.581c-1.707-1.683-3.767-2.603-6.191-2.759h-10.8V48.48
		c0,0.234-0.069,0.418-0.208,0.551c-0.156,0.162-0.347,0.236-0.565,0.236h-0.058c-0.219,0-0.407-0.074-0.565-0.236
		c-0.158-0.148-0.236-0.332-0.236-0.551V15.438c0-2.222,0.792-4.108,2.377-5.674c1.63-1.557,3.581-2.336,5.861-2.336h3.6
		c3.116,0,5.774,1.064,7.973,3.208c2.206,2.133,3.3,4.719,3.3,7.775c0,3.025-1.094,5.611-3.3,7.744
		c-0.93,0.912-2.131,1.706-3.598,2.406c1.349,0.654,2.559,1.452,3.63,2.396c2.18,2.124,3.268,4.704,3.268,7.748v9.775
		c0,0.219-0.075,0.402-0.234,0.551c-0.16,0.162-0.351,0.236-0.565,0.236h-0.06c-0.199,0-0.377-0.074-0.535-0.236
		c-0.158-0.148-0.238-0.332-0.238-0.551V38.706z M103.081,27.749c2.638,0,4.902-0.9,6.784-2.72c1.902-1.847,2.857-4.058,2.857-6.617
		c0-2.583-0.955-4.801-2.857-6.648c-1.882-1.816-4.146-2.72-6.784-2.72h-3.182c-2.061,0-3.74,0.61-5.026,1.847
		c-1.015,0.924-1.629,2.035-1.846,3.331c-0.099,0.36-0.152,0.841-0.152,1.44v12.087H103.081z"/>
	<path fill="#FFFFFF" d="M149.882,49.268c-0.517,0-0.775-0.258-0.775-0.787v-7.106c-0.946,1.678-2.103,3.075-3.45,4.218
		c-2.816,2.451-6.138,3.675-9.966,3.675c-4.165,0-7.719-1.445-10.65-4.309c-2.956-2.852-4.435-6.308-4.435-10.354
		s1.479-7.498,4.435-10.354c2.932-2.868,6.485-4.308,10.65-4.308c4.167,0,7.716,1.44,10.653,4.308
		c2.953,2.857,4.434,6.309,4.434,10.354V48.48c0,0.529-0.27,0.787-0.806,0.787H149.882z M126.23,25.405
		c-2.641,2.543-3.959,5.612-3.959,9.2c0,3.584,1.318,6.652,3.959,9.2c2.619,2.544,5.772,3.818,9.46,3.818
		c3.692,0,6.844-1.274,9.463-3.818c2.637-2.547,3.953-5.616,3.953-9.2c0-3.588-1.316-6.656-3.953-9.2
		c-2.619-2.517-5.771-3.785-9.463-3.785C132.003,21.621,128.85,22.889,126.23,25.405z"/>
	<path fill="#FFFFFF" d="M170.915,49.268c-4.162,0-7.716-1.445-10.649-4.309c-2.953-2.852-4.435-6.308-4.435-10.354
		s1.481-7.498,4.435-10.354c2.934-2.868,6.487-4.308,10.649-4.308c3.771,0,7.104,1.229,10,3.698c1.111,0.95,2.253,2.367,3.422,4.249
		V8.207c0-0.528,0.276-0.779,0.835-0.779c0.553,0,0.83,0.25,0.83,0.779V34.69c-0.038,4.015-1.528,7.443-4.462,10.292
		C178.584,47.842,175.042,49.268,170.915,49.268z M170.915,21.68c-3.685,0-6.84,1.276-9.458,3.808
		c-2.637,2.559-3.956,5.619-3.956,9.203c0,3.585,1.319,6.645,3.956,9.201c2.618,2.542,5.773,3.81,9.458,3.81
		c3.692,0,6.847-1.268,9.464-3.81c2.639-2.556,3.958-5.616,3.958-9.201c0-3.584-1.319-6.644-3.958-9.203
		C177.762,22.956,174.607,21.68,170.915,21.68z"/>
	<path fill="#FFFFFF" d="M192.789,9.596c-0.264-0.258-0.389-0.551-0.389-0.899c0-0.353,0.125-0.658,0.389-0.9
		c0.253-0.258,0.573-0.368,0.948-0.368c0.358,0,0.652,0.11,0.894,0.368c0.262,0.242,0.388,0.547,0.388,0.9
		c0,0.348-0.126,0.641-0.388,0.899c-0.26,0.243-0.555,0.368-0.894,0.368C193.362,9.964,193.042,9.839,192.789,9.596z M193.65,49.268
		c-0.536,0-0.806-0.258-0.806-0.787V20.756c0-0.544,0.27-0.814,0.806-0.814c0.573,0,0.86,0.27,0.86,0.814V48.48
		c0,0.529-0.257,0.787-0.773,0.787H193.65z"/>
	<path fill="#FFFFFF" d="M204.898,44.958c-2.959-2.852-4.437-6.308-4.437-10.354s1.478-7.498,4.437-10.354
		c2.931-2.868,6.485-4.308,10.648-4.308s7.719,1.44,10.652,4.308c2.951,2.857,4.433,6.309,4.433,10.354s-1.481,7.501-4.433,10.354
		c-2.934,2.864-6.489,4.309-10.652,4.309S207.829,47.822,204.898,44.958z M206.085,25.487c-2.64,2.559-3.959,5.619-3.959,9.203
		c0,3.585,1.319,6.645,3.959,9.201c2.62,2.542,5.773,3.81,9.462,3.81c3.692,0,6.845-1.268,9.457-3.81
		c2.646-2.556,3.961-5.616,3.961-9.201c0-3.584-1.314-6.644-3.961-9.203c-2.612-2.532-5.765-3.808-9.457-3.808
		C211.858,21.68,208.705,22.956,206.085,25.487z"/>
</g>
<g>
	<path fill="#FFFFFF" d="M156.153,80.58c-0.077-0.125-0.094-0.271-0.049-0.43c0.054-0.127,0.146-0.216,0.274-0.263
		c0.089-0.038,0.154-0.055,0.196-0.055c0.15,0,0.281,0.087,0.39,0.247c1.421,2.335,3.593,3.505,6.5,3.505
		c1.813,0,3.471-0.74,4.972-2.221c1.58-1.578,2.375-3.433,2.375-5.568v-3.451c-0.494,0.981-1.123,1.819-1.869,2.512
		c-1.58,1.47-3.402,2.202-5.478,2.202c-2.279,0-4.226-0.859-5.829-2.585c-1.618-1.718-2.43-3.793-2.43-6.206
		c0-2.428,0.812-4.505,2.43-6.23c1.604-1.711,3.55-2.565,5.829-2.565c2.256,0,4.197,0.854,5.815,2.565
		c1.609,1.714,2.425,3.775,2.443,6.195v7.563c0,2.38-0.9,4.47-2.701,6.263c-1.695,1.69-3.546,2.533-5.558,2.533
		C160.21,84.592,157.771,83.256,156.153,80.58z M158.287,62.751c-1.442,1.525-2.167,3.359-2.167,5.517
		c0,2.152,0.725,3.988,2.167,5.514c1.431,1.526,3.159,2.294,5.178,2.294c2.021,0,3.747-0.768,5.181-2.294
		c1.446-1.525,2.166-3.361,2.166-5.514v-0.127l-0.03-0.12c-0.057-2.091-0.802-3.87-2.232-5.338
		c-1.426-1.485-3.114-2.228-5.084-2.228C161.446,60.455,159.718,61.223,158.287,62.751z"/>
	<path fill="#FFFFFF" d="M175.408,77.045c-0.284,0-0.422-0.157-0.422-0.47V65.781c0.007-1.768,0.588-3.263,1.739-4.488
		c1.14-1.228,2.537-1.836,4.188-1.836h0.992c0.293,0,0.44,0.16,0.44,0.481c0,0.348-0.147,0.517-0.44,0.517h-0.992
		c-1.393,0-2.57,0.512-3.536,1.53c-0.967,1.028-1.464,2.296-1.482,3.796v10.794c0,0.313-0.147,0.47-0.44,0.47H175.408z"/>
	<path fill="#FFFFFF" d="M200.037,77.045c-0.284,0-0.425-0.157-0.425-0.47v-4.268c-0.522,1.007-1.148,1.852-1.89,2.532
		c-1.543,1.47-3.36,2.205-5.454,2.205c-2.282,0-4.226-0.859-5.835-2.585c-1.617-1.714-2.427-3.784-2.427-6.214
		c0-2.425,0.81-4.495,2.427-6.209c1.609-1.721,3.553-2.58,5.835-2.58c2.279,0,4.226,0.859,5.829,2.58
		c1.618,1.714,2.428,3.784,2.428,6.209v8.329c0,0.313-0.146,0.47-0.439,0.47H200.037z M187.086,62.734
		c-1.444,1.526-2.167,3.361-2.167,5.512c0,2.153,0.723,3.993,2.167,5.521c1.436,1.523,3.158,2.293,5.183,2.293
		c2.017,0,3.747-0.77,5.178-2.293c1.444-1.528,2.166-3.368,2.166-5.521c0-2.15-0.722-3.985-2.166-5.512
		c-1.431-1.517-3.161-2.279-5.178-2.279C190.244,60.455,188.521,61.218,187.086,62.734z"/>
	<path fill="#FFFFFF" d="M207.888,77.045c-1.043,0-1.935-0.395-2.671-1.179c-0.738-0.779-1.106-1.716-1.106-2.831V52.413
		c0-0.317,0.15-0.47,0.455-0.47s0.455,0.152,0.455,0.47v7.044h4.234c0.296,0,0.441,0.16,0.441,0.481
		c0,0.348-0.146,0.517-0.441,0.517h-4.234v12.58c0,0.836,0.283,1.549,0.847,2.136c0.553,0.59,1.23,0.89,2.021,0.89h1.367
		c0.296,0,0.441,0.16,0.441,0.481c0,0.334-0.146,0.503-0.441,0.503H207.888z"/>
	<path fill="#FFFFFF" d="M212.353,53.246c-0.138-0.152-0.213-0.331-0.213-0.54s0.075-0.39,0.213-0.535
		c0.141-0.154,0.313-0.228,0.523-0.228c0.192,0,0.356,0.073,0.487,0.228c0.137,0.146,0.209,0.326,0.209,0.535
		s-0.072,0.388-0.209,0.54c-0.141,0.15-0.302,0.226-0.487,0.226C212.665,53.472,212.493,53.396,212.353,53.246z M212.822,77.045
		c-0.289,0-0.438-0.157-0.438-0.47V59.938c0-0.321,0.149-0.481,0.438-0.481c0.316,0,0.474,0.16,0.474,0.481v16.637
		c0,0.313-0.139,0.47-0.42,0.47H212.822z"/>
	<path fill="#FFFFFF" d="M217.008,77.045c-0.3,0-0.453-0.157-0.453-0.47c0-0.345,0.153-0.515,0.453-0.515h4.467
		c0.945,0,1.752-0.361,2.428-1.063c0.673-0.719,1.013-1.578,1.013-2.587c0-1.188-0.39-2.04-1.158-2.55
		c-0.338-0.23-1.175-0.54-2.507-0.915c-1.482-0.433-2.554-0.939-3.215-1.526c-0.854-0.793-1.285-1.895-1.285-3.316
		c0-1.287,0.422-2.378,1.271-3.277c0.847-0.913,1.871-1.369,3.079-1.369h3.178c0.29,0,0.436,0.16,0.436,0.481
		c0,0.348-0.146,0.517-0.436,0.517H221.1c-0.945,0-1.749,0.361-2.41,1.063c-0.654,0.719-0.979,1.577-0.979,2.585
		c0,1.248,0.455,2.197,1.37,2.845c0.509,0.373,1.421,0.742,2.736,1.127c1.451,0.401,2.437,0.84,2.947,1.3
		c0.716,0.646,1.074,1.662,1.074,3.036c0,1.274-0.42,2.358-1.271,3.263c-0.857,0.913-1.89,1.371-3.093,1.371H217.008z"/>
</g>
<g>
	<linearGradient id="SVGID_2_" gradientUnits="userSpaceOnUse" x1="90.0933" y1="70.8486" x2="150.1871" y2="70.8486">
		<stop  offset="0.0744" style="stop-color:#A04C97"/>
		<stop  offset="1" style="stop-color:#30AEE4"/>
	</linearGradient>
	<path fill="url(#SVGID_2_)" d="M98.274,76.118L98.274,76.118c-1.176,0-2.13-0.703-2.13-1.571V67.15c0-0.867,0.954-1.571,2.13-1.571
		l0,0c1.177,0,2.13,0.704,2.13,1.571v7.396C100.404,75.415,99.451,76.118,98.274,76.118z"/>
	<linearGradient id="SVGID_3_" gradientUnits="userSpaceOnUse" x1="90.0928" y1="70.8486" x2="150.1866" y2="70.8486">
		<stop  offset="0.0744" style="stop-color:#A04C97"/>
		<stop  offset="1" style="stop-color:#30AEE4"/>
	</linearGradient>
	<path fill="url(#SVGID_3_)" d="M109.44,82.503L109.44,82.503c-1.177,0-2.13-0.704-2.13-1.571V60.767
		c0-0.868,0.954-1.572,2.13-1.572l0,0c1.176,0,2.13,0.704,2.13,1.572v20.165C111.57,81.799,110.616,82.503,109.44,82.503z"/>
	<linearGradient id="SVGID_4_" gradientUnits="userSpaceOnUse" x1="90.0923" y1="70.8496" x2="150.1861" y2="70.8496">
		<stop  offset="0.0744" style="stop-color:#A04C97"/>
		<stop  offset="1" style="stop-color:#30AEE4"/>
	</linearGradient>
	<path fill="url(#SVGID_4_)" d="M120.605,82.531L120.605,82.531c-1.176,0-2.13-0.704-2.13-1.57V60.737c0-0.867,0.954-1.57,2.13-1.57
		l0,0c1.175,0,2.13,0.703,2.13,1.57v20.224C122.735,81.827,121.78,82.531,120.605,82.531z"/>
	<linearGradient id="SVGID_5_" gradientUnits="userSpaceOnUse" x1="90.0952" y1="70.8496" x2="150.1822" y2="70.8496">
		<stop  offset="0.0744" style="stop-color:#A04C97"/>
		<stop  offset="1" style="stop-color:#30AEE4"/>
	</linearGradient>
	<path fill="url(#SVGID_5_)" d="M115.022,87.328L115.022,87.328c-1.176,0-2.13-0.703-2.13-1.571V55.941
		c0-0.868,0.954-1.571,2.13-1.571l0,0c1.176,0,2.13,0.703,2.13,1.571v29.815C117.152,86.625,116.199,87.328,115.022,87.328z"/>
	<linearGradient id="SVGID_6_" gradientUnits="userSpaceOnUse" x1="90.0913" y1="70.8496" x2="150.1921" y2="70.8496">
		<stop  offset="0.0744" style="stop-color:#A04C97"/>
		<stop  offset="1" style="stop-color:#30AEE4"/>
	</linearGradient>
	<path fill="url(#SVGID_6_)" d="M103.857,84.916L103.857,84.916c-1.176,0-2.13-0.703-2.13-1.572v-24.99
		c0-0.868,0.954-1.571,2.13-1.571l0,0c1.177,0,2.13,0.703,2.13,1.571v24.99C105.987,84.213,105.034,84.916,103.857,84.916z"/>
	<linearGradient id="SVGID_7_" gradientUnits="userSpaceOnUse" x1="90.0957" y1="70.8486" x2="150.1827" y2="70.8486">
		<stop  offset="0.0744" style="stop-color:#A04C97"/>
		<stop  offset="1" style="stop-color:#30AEE4"/>
	</linearGradient>
	<path fill="url(#SVGID_7_)" d="M126.188,82.503L126.188,82.503c-1.177,0-2.131-0.704-2.131-1.571V60.767
		c0-0.868,0.954-1.572,2.131-1.572l0,0c1.176,0,2.129,0.704,2.129,1.572v20.165C128.317,81.799,127.364,82.503,126.188,82.503z"/>
	<linearGradient id="SVGID_8_" gradientUnits="userSpaceOnUse" x1="90.0962" y1="70.8496" x2="150.1832" y2="70.8496">
		<stop  offset="0.0744" style="stop-color:#A04C97"/>
		<stop  offset="1" style="stop-color:#30AEE4"/>
	</linearGradient>
	<path fill="url(#SVGID_8_)" d="M131.77,79.618L131.77,79.618c-1.176,0-2.129-0.703-2.129-1.572V63.651
		c0-0.868,0.953-1.571,2.129-1.571l0,0c1.176,0,2.131,0.703,2.131,1.571v14.395C133.9,78.915,132.945,79.618,131.77,79.618z"/>
	<linearGradient id="SVGID_9_" gradientUnits="userSpaceOnUse" x1="90.0854" y1="70.8496" x2="150.1862" y2="70.8496">
		<stop  offset="0.0744" style="stop-color:#A04C97"/>
		<stop  offset="1" style="stop-color:#30AEE4"/>
	</linearGradient>
	<path fill="url(#SVGID_9_)" d="M137.354,75.233L137.354,75.233c-1.176,0-2.131-0.703-2.131-1.571v-5.626
		c0-0.869,0.955-1.571,2.131-1.571l0,0c1.176,0,2.13,0.702,2.13,1.571v5.626C139.483,74.53,138.529,75.233,137.354,75.233z"/>
	<linearGradient id="SVGID_10_" gradientUnits="userSpaceOnUse" x1="90.0962" y1="70.8496" x2="150.1832" y2="70.8496">
		<stop  offset="0.0744" style="stop-color:#A04C97"/>
		<stop  offset="1" style="stop-color:#30AEE4"/>
	</linearGradient>
	<path fill="url(#SVGID_10_)" d="M142.936,74.515L142.936,74.515c-1.176,0-2.13-0.704-2.13-1.571v-4.188
		c0-0.867,0.954-1.571,2.13-1.571l0,0c1.177,0,2.13,0.704,2.13,1.571v4.188C145.065,73.811,144.112,74.515,142.936,74.515z"/>
	<linearGradient id="SVGID_11_" gradientUnits="userSpaceOnUse" x1="90.0967" y1="70.8496" x2="150.1837" y2="70.8496">
		<stop  offset="0.0744" style="stop-color:#A04C97"/>
		<stop  offset="1" style="stop-color:#30AEE4"/>
	</linearGradient>
	<path fill="url(#SVGID_11_)" d="M148.519,72.797L148.519,72.797c-1.176,0-2.13-0.704-2.13-1.571v-0.754
		c0-0.867,0.954-1.57,2.13-1.57l0,0c1.176,0,2.13,0.703,2.13,1.57v0.754C150.648,72.093,149.694,72.797,148.519,72.797z"/>
	<linearGradient id="SVGID_12_" gradientUnits="userSpaceOnUse" x1="90.0938" y1="70.8496" x2="150.1807" y2="70.8496">
		<stop  offset="0.0744" style="stop-color:#A04C97"/>
		<stop  offset="1" style="stop-color:#30AEE4"/>
	</linearGradient>
	<path fill="url(#SVGID_12_)" d="M92.691,72.797L92.691,72.797c-1.176,0-2.13-0.704-2.13-1.571v-0.754c0-0.867,0.954-1.57,2.13-1.57
		l0,0c1.176,0,2.13,0.703,2.13,1.57v0.754C94.821,72.093,93.868,72.797,92.691,72.797z"/>
</g>
</svg>
